<svg width="301" height="291" viewBox="0 0 301 291" fill="none" xmlns="http://www.w3.org/2000/svg">
<path d="M278.577 237.193L251.209 247.263L241.84 222.718C245.045 204.153 252.82 204.681 257.866 201.321C263.537 197.545 267.975 184.958 272.167 185.273C276.226 185.577 275.66 186.768 275.62 204.28C275.618 205.442 275.868 206.585 276.263 207.677C279.789 217.442 279.588 231.539 278.577 237.193Z" fill="#242E0E"/>
<path d="M250.219 246.004C251.699 233.417 267.971 227.123 279.56 225.865L278.573 239.396L255.397 262.681C255.315 263.94 254.164 262.367 250.219 246.004Z" fill="#0F1403"/>
<path d="M268.47 197.545C258.017 211.391 251.787 237.089 249.979 248.207" stroke="#0F1403" stroke-width="0.320847" stroke-linecap="round"/>
<path d="M284.494 284.71H254.907L248.989 248.523C254.167 234.992 261.564 234.363 273.892 229.328C286.219 224.293 286.002 218.153 294.602 217.056C301.808 216.136 301.994 222.084 296.074 246.534C295.757 247.843 295.697 249.21 295.823 250.55C297.569 269.048 287.508 278.736 284.494 284.71Z" fill="#242E0E"/>
<path d="M285.482 236.25C274.88 258.906 261.566 268.556 258.36 278.73" stroke="#0F1403" stroke-width="0.320847" stroke-linecap="round"/>
<path d="M261.564 284.709H113.384C113.384 274.22 112.151 252.612 126.205 234.676C137.174 220.677 141.82 193.245 143.217 181.812H236.169C236.498 191.252 238.585 212.964 244.306 224.292C252.984 238.641 259.428 270.549 261.564 284.709Z" fill="#5D3315"/>
<path d="M165.408 181.497C172.311 208.244 138.533 229.327 141.738 285.023" stroke="#261305" stroke-width="0.320847"/>
<path d="M189.572 284.707C184.887 261.422 200.744 259.219 198.448 242.227C194.75 214.851 210.529 219.571 217.926 242.227C224.374 261.979 240.856 258.904 249.732 284.707" stroke="#261305" stroke-width="0.320847"/>
<path d="M266.497 266.142L281.537 261.422" stroke="black" stroke-width="0.213898"/>
<path d="M255.893 224.292L266.495 217.054" stroke="black" stroke-width="0.213898"/>
<path d="M255.155 206.356C254.958 211.642 256.716 217.369 257.62 219.572" stroke="black" stroke-width="0.213898"/>
<path d="M202.651 37.8101C209.814 37.3402 209.027 31.5488 208.881 23.3554L199.279 21.1369C198.761 23.992 198.71 31.3238 202.651 37.8101Z" fill="#0D0A07"/>
<path d="M197.192 13.9506C201.561 13.7162 205.205 17.2498 205.105 21.6236L204.926 29.4435C204.913 29.9816 204.809 30.5137 204.618 31.017C204.427 31.5228 204.266 31.4369 204.255 31.9758L203.875 48.8869L204.762 60.3113L186.055 60.3049L185.822 47.332L184.702 47.3521C180.931 47.4197 177.819 44.4175 177.752 40.6466L177.434 22.8969C176.997 18.628 180.219 14.8615 184.504 14.6315L197.192 13.9506Z" fill="#F48C85"/>
<path d="M183.039 38.2953L187.708 36.8575C187.907 36.7962 188.115 36.9255 188.132 37.1331C188.23 38.3278 187.981 40.0244 186.217 40.2737C184.49 40.5176 183.338 39.5514 182.85 38.7355C182.748 38.5641 182.848 38.354 183.039 38.2953Z" fill="#EDEDED"/>
<path fill-rule="evenodd" clip-rule="evenodd" d="M182.845 38.7184L188.141 37.1928C188.14 37.1729 188.138 37.153 188.137 37.1333C188.12 36.9258 187.912 36.7964 187.713 36.8577L183.043 38.2955C182.859 38.3523 182.759 38.5504 182.845 38.7184Z" fill="#CC584F"/>
<path d="M194.965 47.1702L185.065 47.3475L185.138 51.4442L194.965 47.1702Z" fill="#C6443A"/>
<path d="M142.056 100.671C139.879 106.28 142.501 112.609 148.007 115.034C153.95 117.651 160.868 114.707 163.101 108.61L177.452 69.4334C179.634 63.4746 176.258 56.923 170.138 55.2432C164.776 53.7713 159.169 56.5934 157.156 61.7772L142.056 100.671Z" fill="#1F4636"/>
<path fill-rule="evenodd" clip-rule="evenodd" d="M187.97 24.6352C189.332 23.6329 191.196 23.7431 192.429 24.8547C192.569 24.981 192.784 24.992 192.923 24.8647C193.062 24.7374 193.073 24.5201 192.935 24.3917C191.464 23.0237 189.208 22.876 187.565 24.0853L187.332 24.2567C187.181 24.3685 187.148 24.5823 187.26 24.7341C187.372 24.886 187.585 24.9185 187.737 24.8067L187.97 24.6352Z" fill="#0D0A07"/>
<path fill-rule="evenodd" clip-rule="evenodd" d="M183.431 25.0104C182.137 23.9217 180.27 23.9104 178.967 24.9396C178.819 25.0565 178.604 25.0535 178.474 24.9175C178.343 24.7814 178.347 24.5639 178.493 24.4447C180.049 23.1752 182.31 23.1744 183.871 24.4879L184.092 24.6742C184.236 24.7956 184.255 25.011 184.134 25.1553C184.012 25.2995 183.797 25.3181 183.652 25.1967L183.431 25.0104Z" fill="#0D0A07"/>
<path d="M190.227 114.376H178.579V120.519L184.085 126.915H190.227V114.376Z" stroke="black" stroke-width="0.682894"/>
<path d="M188.177 111.645H176.53V117.788L182.036 124.184H188.177V111.645Z" stroke="black" stroke-width="0.682894"/>
<path d="M189.882 114.035H177.552V120.646L183.243 127.257H189.882V114.035Z" fill="#151C05"/>
<path d="M204.226 48.4001C205.357 48.4001 206.274 49.3174 206.274 50.4488V53.3103C206.274 54.0119 206.806 54.5994 207.504 54.6693L219.914 55.912C222.404 55.912 224.648 57.415 225.597 59.7179L228.46 66.6728C228.691 67.2315 228.794 67.8341 228.764 68.4375L225.597 117.031L226.761 143.322C226.761 145.585 224.927 150.151 222.664 150.151H163.996C161.71 150.151 157.817 145.548 157.851 143.261L161.086 113.275V63.7644C161.151 59.4088 161.627 55.0424 165.984 55.0424L180.708 54.5871C181.446 54.5643 182.032 53.9599 182.032 53.222V50.4488C182.032 49.3174 182.949 48.4001 184.08 48.4001H204.226Z" fill="#1F4636"/>
<path d="M228.808 140.592C228.808 139.837 228.196 139.226 227.442 139.226H158.47C157.716 139.226 157.104 139.837 157.104 140.592V149.469C157.104 150.224 157.716 150.835 158.47 150.835H227.442C228.196 150.835 228.808 150.224 228.808 149.469V140.592Z" fill="#1F4636"/>
<path fill-rule="evenodd" clip-rule="evenodd" d="M228.47 139.225C228.47 139.036 228.317 138.883 228.129 138.883H157.791C157.602 138.883 157.449 139.036 157.449 139.225C157.449 139.413 157.602 139.566 157.791 139.566H228.129C228.317 139.566 228.47 139.413 228.47 139.225Z" fill="#113325"/>
<rect width="3.41447" height="15.7066" rx="0.682894" transform="matrix(-0.866025 0.5 0.5 0.866025 197.054 120.104)" fill="#113325"/>
<rect x="170.538" y="120.104" width="3.41447" height="15.7066" rx="0.682894" transform="rotate(30 170.538 120.104)" fill="#113325"/>
<path d="M216.517 105.256L210.713 64.2822L227.102 82.2024C227.443 82.9991 228.809 86.2314 228.809 95.5188C228.809 95.5188 227.785 114.475 216.517 105.256Z" fill="#193F2F"/>
<path d="M202.178 49.0845V54.5476" stroke="#113325" stroke-width="0.682894"/>
<path d="M195.349 49.0845V54.5476" stroke="#113325" stroke-width="0.682894"/>
<path d="M184.42 49.0845V54.5476" stroke="#113325" stroke-width="0.682894"/>
<path d="M187.836 49.2388L187.153 61.5309L183.397 124.379L182.729 127.497C181.163 134.803 181.873 142.414 184.763 149.305V149.305" stroke="#113325" stroke-width="1.36579"/>
<path d="M200.048 250.703L182.293 250.703L182.293 270.507L200.048 270.507V250.703Z" fill="#F48C85"/>
<path d="M199.963 260.946L182.295 260.946L182.295 270.506L199.963 270.506L199.963 260.946Z" fill="#FCC478"/>
<path d="M187.139 266.637C187.73 267.757 188.893 268.458 190.159 268.458L192.578 268.458C193.689 268.458 194.688 267.782 195.1 266.751C195.512 265.719 196.511 265.043 197.622 265.043L200.734 265.043L202.1 286.213L191.685 286.213L186.478 283.481L181.271 283.481L174.101 284.164L170.857 286.213L160.443 286.213L159.933 282.645C159.445 279.225 161.587 275.979 164.924 275.084L174.034 272.64C176.742 271.913 178.731 269.605 179.049 266.82L179.357 264.128C179.475 263.093 180.351 262.312 181.392 262.312L183.621 262.312C184.381 262.312 185.078 262.732 185.433 263.404L187.139 266.637Z" fill="#5D3315"/>
<path d="M201.758 280.75C200.884 281.624 199.698 282.116 198.461 282.116L159.939 282.116L159.939 286.213L172.927 286.213C173.222 285.394 173.999 284.847 174.869 284.847L174.981 284.847C175.712 284.847 176.397 285.207 176.812 285.81L177.089 286.213L182.637 286.213C183.282 285.353 184.294 284.847 185.369 284.847L186.627 284.847C187.78 284.847 188.877 285.345 189.637 286.213L202.1 286.213L201.758 280.75Z" fill="#0C0501"/>
<path d="M166.567 274.644C166.859 274.981 167.099 275.37 167.271 275.8C167.89 277.346 169.388 278.36 171.054 278.36L172.051 278.36C174.126 278.36 175.807 280.042 175.807 282.116L159.878 282.116C159.669 278.896 161.759 275.933 164.923 275.084L166.567 274.644Z" fill="#4A250A"/>
<path d="M200.865 267.092L198.356 267.092C197.523 267.092 196.774 267.599 196.464 268.372C195.949 269.661 194.701 270.506 193.312 270.506L188.553 270.506C187.233 270.506 186.032 269.746 185.467 268.554L183.874 265.191C183.535 264.475 182.814 264.019 182.022 264.019L179.371 264.019C179.536 263.039 180.386 262.312 181.391 262.312L183.62 262.312C184.38 262.312 185.077 262.732 185.432 263.404L187.138 266.637C187.729 267.757 188.891 268.458 190.158 268.458L192.577 268.458C193.688 268.458 194.686 267.782 195.099 266.751C195.511 265.719 196.51 265.043 197.62 265.043L200.733 265.043L200.865 267.092Z" fill="#4A240A"/>
<path d="M179.211 265.385L181.611 265.385C182.177 265.385 182.636 265.844 182.636 266.41C182.636 266.976 182.177 267.434 181.611 267.434L178.949 267.434C178.991 267.233 179.024 267.028 179.047 266.82L179.055 266.751L181.611 266.751C181.8 266.751 181.953 266.598 181.953 266.41C181.953 266.221 181.8 266.068 181.611 266.068L179.133 266.068L179.211 265.385Z" fill="#F1D6A9"/>
<path d="M178.512 268.8L180.928 268.8C181.494 268.8 181.953 269.259 181.953 269.824C181.953 270.39 181.494 270.849 180.928 270.849L177.116 270.849C177.328 270.634 177.526 270.406 177.708 270.166L180.928 270.166C181.117 270.166 181.27 270.013 181.27 269.824C181.27 269.636 181.117 269.483 180.928 269.483L178.163 269.483C178.292 269.263 178.408 269.035 178.512 268.8Z" fill="#F1D6A9"/>
<path fill-rule="evenodd" clip-rule="evenodd" d="M184.347 263.335C184.347 267.577 184.191 270.879 181.994 273.255C179.806 275.622 175.669 276.991 167.988 277.674L167.927 276.994C175.611 276.311 179.498 274.949 181.493 272.791C183.479 270.643 183.664 267.629 183.664 263.335L184.347 263.335ZM201.417 276.309C198.211 276.309 195.612 278.908 195.612 282.114L194.929 282.114C194.929 278.531 197.834 275.626 201.417 275.626L201.417 276.309Z" fill="#4A240A"/>
<path d="M197.397 150.307H179.475C171.342 150.381 165.038 157.715 165.999 165.791L176.148 251.044H204.147L203.148 181.789C203.448 181.837 203.756 181.865 204.068 181.872L213.474 182.086C221.136 182.26 227.442 176.096 227.442 168.431V150.307H197.397Z" fill="#B4792D"/>
<path d="M136.338 249.589L117.899 249.589L118.157 269.393L136.338 269.393L136.338 249.589Z" fill="#F48C85"/>
<path d="M136.453 260.25L118.014 260.25L118.014 269.391L137.023 269.391L136.453 260.25Z" fill="#FCC478"/>
<path d="M123.429 265.523C124.02 266.642 125.182 267.343 126.449 267.343L128.868 267.343C129.978 267.343 130.977 266.667 131.39 265.636C131.802 264.605 132.801 263.929 133.911 263.929L137.023 263.929L138.389 285.099L127.975 285.099L122.768 282.367L117.561 282.367L110.391 283.05L107.147 285.099L96.7327 285.099L96.223 281.531C95.7344 278.111 97.877 274.865 101.214 273.969L110.323 271.525C113.031 270.799 115.02 268.491 115.339 265.705L115.646 263.013C115.764 261.979 116.64 261.197 117.682 261.197L119.911 261.197C120.671 261.197 121.368 261.618 121.723 262.29L123.429 265.523Z" fill="#5D3315"/>
<path d="M138.048 279.635C137.173 280.51 135.987 281.001 134.75 281.001L96.2281 281.001L96.2281 285.098L109.217 285.098C109.511 284.279 110.288 283.733 111.159 283.733L111.27 283.733C112.002 283.733 112.687 284.093 113.101 284.696L113.378 285.098L118.927 285.098C119.572 284.239 120.584 283.733 121.658 283.733L122.916 283.733C124.07 283.733 125.167 284.23 125.926 285.098L138.389 285.098L138.048 279.635Z" fill="#0C0501"/>
<path d="M102.856 273.529C103.149 273.866 103.389 274.255 103.561 274.685C104.179 276.232 105.677 277.246 107.343 277.246L108.341 277.246C110.415 277.246 112.097 278.927 112.097 281.002L96.1672 281.002C95.9586 277.781 98.0489 274.819 101.213 273.97L102.856 273.529Z" fill="#4A250A"/>
<path d="M137.154 265.978L134.645 265.978C133.812 265.978 133.063 266.485 132.754 267.258C132.238 268.547 130.99 269.392 129.602 269.392L124.842 269.392C123.523 269.392 122.321 268.632 121.756 267.439L120.163 264.076C119.824 263.361 119.104 262.905 118.312 262.905L115.66 262.905C115.825 261.924 116.676 261.197 117.68 261.197L119.91 261.197C120.669 261.197 121.367 261.618 121.721 262.29L123.428 265.523C124.019 266.642 125.181 267.343 126.447 267.343L128.867 267.343C129.977 267.343 130.976 266.667 131.388 265.636C131.801 264.605 132.799 263.929 133.91 263.929L137.022 263.929L137.154 265.978Z" fill="#4A240A"/>
<path d="M115.501 264.271L117.901 264.271C118.467 264.271 118.925 264.73 118.925 265.295C118.925 265.861 118.467 266.32 117.901 266.32L115.238 266.32C115.28 266.118 115.313 265.913 115.337 265.706L115.345 265.637L117.901 265.637C118.089 265.637 118.242 265.484 118.242 265.295C118.242 265.107 118.089 264.954 117.901 264.954L115.423 264.954L115.501 264.271Z" fill="#F1D6A9"/>
<path d="M114.801 267.685L117.218 267.685C117.784 267.685 118.242 268.144 118.242 268.71C118.242 269.276 117.784 269.734 117.218 269.734L113.406 269.734C113.618 269.52 113.816 269.292 113.998 269.051L117.218 269.051C117.407 269.051 117.559 268.898 117.559 268.71C117.559 268.521 117.407 268.368 117.218 268.368L114.453 268.368C114.581 268.148 114.698 267.92 114.801 267.685Z" fill="#F1D6A9"/>
<path fill-rule="evenodd" clip-rule="evenodd" d="M120.637 262.222C120.637 266.464 120.48 269.766 118.284 272.142C116.096 274.509 111.959 275.878 104.278 276.561L104.217 275.881C111.901 275.198 115.788 273.836 117.783 271.678C119.769 269.53 119.954 266.516 119.954 262.222L120.637 262.222ZM137.706 275.196C134.501 275.196 131.902 277.795 131.902 281.001L131.219 281.001C131.219 277.418 134.123 274.513 137.706 274.513L137.706 275.196Z" fill="#4A240A"/>
<path d="M110.846 254.79L138.845 255.473L145.504 181.721H179.641C187.184 181.721 193.299 175.606 193.299 168.063V150.308H130.473C129.621 150.308 128.787 150.386 127.978 150.535L124.733 150.252C116.695 149.55 109.803 155.933 109.888 164.002L110.846 254.79Z" fill="#B4792D"/>
<mask id="path-51-inside-1_20_3334" fill="white">
</mask>
<path d="M110.844 254.789L110.833 255.301L110.333 255.291L110.331 254.791L110.844 254.789ZM138.845 255.36L139.355 255.407L139.311 255.882L138.835 255.872L138.845 255.36ZM146.038 171.76C146.064 171.478 146.313 171.271 146.595 171.297C146.876 171.323 147.084 171.572 147.058 171.854L146.038 171.76ZM110.547 164.009L110.035 164.01L110.547 164.009ZM157.28 149.794C157.563 149.794 157.793 150.023 157.793 150.306C157.793 150.589 157.563 150.818 157.28 150.818L157.28 149.794ZM124.205 150.306L124.205 149.794L124.205 150.306ZM110.854 254.277L138.856 254.848L138.835 255.872L110.833 255.301L110.854 254.277ZM138.335 255.313L146.038 171.76L147.058 171.854L139.355 255.407L138.335 255.313ZM111.059 164.007L111.356 254.787L110.331 254.791L110.035 164.01L111.059 164.007ZM157.28 150.818L124.205 150.818L124.205 149.794L157.28 149.794L157.28 150.818ZM110.035 164.01C110.009 156.166 116.361 149.794 124.205 149.794L124.205 150.818C116.928 150.818 111.035 156.73 111.059 164.007L110.035 164.01Z" fill="#6D3A09" mask="url(#path-51-inside-1_20_3334)"/>
<path d="M181.691 150.307C173.536 150.341 165.054 157.825 166.019 165.931L176.151 251.044H204.15L203.225 183.105C203.215 182.343 203.829 181.72 204.591 181.72H213.787" stroke="#6D3A09" stroke-width="1.02434" stroke-linecap="round"/>
<path d="M106.548 166.997C101.928 155.295 109.483 143.819 115.018 137.469L126.4 145.453L124.125 148.214L124.125 149.769C124.125 151.911 123.565 154.016 122.501 155.875L118.666 162.577C118.168 163.447 117.11 163.823 116.175 163.464C114.998 163.012 114.508 161.604 115.084 160.483C115.474 159.725 115.894 158.849 116.23 158.005C117.039 155.972 115.197 154.192 113.473 155.539C109.915 158.319 109.855 167.021 109.953 168.231C110.108 170.143 106.517 171.151 106.548 166.997Z" fill="#F48C85"/>
<path d="M132.347 143.989C131.045 145.338 128.899 145.385 127.539 144.095L117.415 134.486C116.09 133.229 115.989 131.152 117.185 129.773L143.329 99.6215C145.595 97.0088 149.456 96.5019 152.319 98.4413L160.096 103.709C163.606 106.087 164.124 111.054 161.18 114.105L132.347 143.989Z" fill="#1F4636"/>
<rect x="125.088" y="148.072" width="15.8768" height="5.4559" rx="0.682894" transform="rotate(-137.656 125.088 148.072)" fill="#1F4636"/>
<path d="M106.069 167.037C105.647 161.83 107.434 156.452 108.73 154.791" stroke="#D4625A" stroke-width="0.682894" stroke-linecap="round"/>
<path d="M161.086 69.3833V113.275" stroke="#113325" stroke-width="1.36579"/>
<path d="M230.252 65.3757C229.627 60.1726 225.332 56.1843 220.096 55.947C213.565 55.6509 208.292 61.2218 208.947 67.7274L213.396 111.913C213.894 116.854 217.601 120.87 222.486 121.76C229.868 123.105 236.442 116.918 235.547 109.468L230.252 65.3757Z" fill="#1F4636"/>
<path d="M178.657 113.839L177.65 113.132C177.066 112.722 176.398 112.446 175.694 112.326C174.576 112.134 173.426 112.343 172.446 112.915L166.885 116.164C165.75 116.827 164.982 117.975 164.803 119.276L164.796 119.328C164.785 119.406 164.805 119.486 164.853 119.55C165.754 120.758 167.407 121.119 168.73 120.395L178.593 114.997C179.036 114.754 179.071 114.13 178.657 113.839Z" fill="#F48C85"/>
<path d="M190.403 132.552C174.696 117.869 131.127 98.1338 79.7737 84.749" stroke="#5D3315" stroke-width="2.04868" stroke-linecap="round"/>
<path d="M177.833 113.477L163.433 118.487C161.709 119.086 160.974 121.183 161.961 122.682L163.186 124.541L169.285 131.798C170.389 133.112 172.161 133.633 173.835 133.136L181.816 130.768C182.612 130.532 183.222 129.858 183.388 129.033L185.967 128.06L185.171 121.383L183.676 114.526L181.782 114.777L177.833 113.477Z" fill="#F48C85"/>
<path d="M189.832 110.964C188.042 111.478 186.994 113.332 187.477 115.131L190.662 127.002C191.14 128.785 192.948 129.864 194.744 129.44L223.492 122.651C229.146 121.316 232.567 115.56 231.037 109.955C229.529 104.434 223.799 101.212 218.299 102.791L189.832 110.964Z" fill="#1F4636"/>
<rect width="15.6448" height="6.05581" rx="0.682894" transform="matrix(0.237272 0.971443 0.971443 -0.237272 182.208 114.325)" fill="#1F4636"/>
<path d="M230.249 65.3746C229.624 60.1714 225.328 56.1832 220.093 55.9459C213.561 55.6498 208.289 61.2207 208.944 67.7262L212.638 104.415L189.83 110.963C188.04 111.477 186.992 113.331 187.474 115.13L190.659 127.001C191.137 128.784 192.946 129.864 194.742 129.44L225.636 121.886M225.636 121.886C226.394 121.707 224.965 122.213 225.636 121.886Z" stroke="#113325" stroke-width="1.02434" stroke-linecap="round"/>
<path d="M208.749 15.8386C208.619 8.62172 203.146 2.62558 195.971 1.83993L192.527 1.46282C192.47 1.45652 192.411 1.45756 192.354 1.46592L188.926 1.96614C181.783 3.00828 176.529 9.19659 176.658 16.4135L176.725 20.176C176.732 20.553 177.043 20.8533 177.42 20.8465L208.146 20.2961C208.523 20.2893 208.823 19.9782 208.816 19.6011L208.749 15.8386Z" fill="#993E00"/>
<path fill-rule="evenodd" clip-rule="evenodd" d="M180.15 20.7978C179.773 20.8046 179.462 20.5043 179.455 20.1273L179.382 16.0416C179.255 8.96457 184.311 2.85353 191.286 1.65213L192.336 1.47133C192.366 1.46613 192.396 1.463 192.426 1.46187C192.465 1.4605 192.505 1.46239 192.543 1.46761L193.598 1.61071C200.612 2.56151 205.884 8.48755 206.011 15.5646L206.084 19.6502C206.09 20.0273 205.79 20.3385 205.413 20.3452L180.15 20.7978ZM180.138 20.115L180.065 16.0294C179.959 10.1362 183.627 4.9464 188.991 2.97038C185.941 4.99957 184.028 8.48288 184.096 12.3065L184.235 20.0416L180.138 20.115ZM201.166 12.0008C201.097 8.1771 199.06 4.76456 195.94 2.8459C201.371 4.62853 205.222 9.68365 205.328 15.5768L205.401 19.6625L201.304 19.7358L201.166 12.0008ZM200.483 12.013L200.621 19.7481L196.525 19.8215L196.305 7.53301C196.272 5.69911 195.514 3.9845 194.244 2.73487C197.914 4.3046 200.409 7.90595 200.483 12.013ZM190.681 2.79869C187.07 4.49886 184.705 8.18727 184.779 12.2943L184.917 20.0294L189.014 19.956L188.794 7.66755C188.761 5.83365 189.457 4.093 190.681 2.79869ZM189.697 19.9438L189.477 7.65532C189.437 5.44386 190.574 3.3829 192.453 2.23477C194.372 3.31486 195.582 5.33377 195.622 7.54524L195.842 19.8337L189.697 19.9438Z" fill="#B4510E"/>
<path d="M194.488 20.5415L208.826 20.2847L208.918 25.4056C207.939 24.9376 203.582 25.5727 201.906 25.8128C201.611 25.8549 201.377 26.0802 201.324 26.3728L200.792 29.3076L199.768 29.326C199.391 29.3327 199.095 29.0276 199.01 28.6601C198.591 26.8456 196.536 27.8214 195.268 25.9916C193.866 23.9677 194.488 20.5415 194.488 20.5415Z" fill="#0D0A07"/>
<rect width="33.4618" height="5.46315" rx="0.682894" transform="matrix(-0.99984 0.0179112 0.0179112 0.99984 209.449 16.8584)" fill="#7C3200"/>
<path d="M200.124 27.9537C199.858 32.0565 201.683 32.0238 203.933 31.9835C206.183 31.9432 207.635 30.0824 207.594 27.8199C207.554 25.5573 206.036 23.7497 203.786 23.7901C201.536 23.8304 200.084 25.6911 200.124 27.9537Z" fill="#F48C85"/>
<path fill-rule="evenodd" clip-rule="evenodd" d="M204.828 26.2378C204.679 26.1223 204.465 26.1496 204.349 26.2987L202.575 28.5895C202.46 28.7386 202.487 28.953 202.636 29.0685C202.786 29.184 203 29.1567 203.115 29.0076L204.889 26.7168C205.005 26.5677 204.977 26.3533 204.828 26.2378Z" fill="#C6443A"/>
<rect width="4.09736" height="2.73158" rx="0.682894" transform="matrix(-0.99984 0.0179112 0.0179112 0.99984 207.426 18.261)" fill="#F9A76F"/>
<path d="M191.421 1.97799C191.407 1.91326 191.422 1.88219 191.421 1.81343C191.411 1.2478 191.861 0.781044 192.427 0.770911C192.992 0.760778 193.459 1.2111 193.469 1.77674C193.471 1.8455 193.465 1.9128 193.453 1.97799L191.421 1.97799Z" fill="#993E00"/>
<path d="M185.026 30.2683L183.915 34.2141L185.788 34.6942" stroke="#C6443A" stroke-width="0.682894" stroke-linecap="round" stroke-linejoin="round"/>
<path d="M203.884 243.863H175.203" stroke="#6D3A09" stroke-width="1.02434" stroke-linecap="round"/>
<path d="M139.527 246.937L110.845 246.937" stroke="#6D3A09" stroke-width="1.02434" stroke-linecap="round"/>
<circle cx="189.378" cy="27.0446" r="1.02434" fill="black"/>
<circle cx="181.186" cy="27.0446" r="1.02434" fill="black"/>
<rect x="82.3699" y="81.3335" width="10.7055" height="8.56536" rx="1.36579" transform="rotate(17.6396 82.3699 81.3335)" fill="#C6C6C6"/>
<rect x="109.683" y="89.5293" width="10.7055" height="8.56536" rx="1.36579" transform="rotate(17.6396 109.683 89.5293)" fill="#C6C6C6"/>
<rect x="96.029" y="85.4321" width="10.7055" height="8.56536" rx="1.36579" transform="rotate(17.6396 96.029 85.4321)" fill="#C6C6C6"/>
<path d="M136.113 102.845C128.601 102.504 126.78 105.577 126.211 106.601" stroke="#5D3315" stroke-width="1.36579" stroke-linecap="round"/>
<g clip-path="url(#clip0_20_3334)">
<path fill-rule="evenodd" clip-rule="evenodd" d="M84.8267 267.53H49.7404V267.538C49.6099 267.533 49.4787 267.53 49.3469 267.53C44.225 267.53 40.0728 271.682 40.0728 276.804C40.0728 281.926 44.225 286.078 49.3469 286.078C49.4787 286.078 49.6099 286.075 49.7404 286.07V286.147H84.8267V267.53Z" fill="#5D3315"/>
<path fill-rule="evenodd" clip-rule="evenodd" d="M12.9488 267.53H48.0351V267.538C48.1656 267.533 48.2968 267.53 48.4286 267.53C53.5506 267.53 57.7027 271.682 57.7027 276.804C57.7027 281.926 53.5506 286.078 48.4286 286.078C48.2968 286.078 48.1656 286.075 48.0351 286.07V286.147H12.9488V267.53Z" fill="#43210A"/>
<path fill-rule="evenodd" clip-rule="evenodd" d="M11.1892 267.53H46.2755V267.538C46.406 267.533 46.5372 267.53 46.669 267.53C51.791 267.53 55.9431 271.682 55.9431 276.804C55.9431 281.926 51.791 286.078 46.669 286.078C46.5372 286.078 46.406 286.075 46.2755 286.07V286.147H11.1892V267.53Z" fill="#5D3315"/>
<circle cx="84.1577" cy="276.889" r="9.25831" fill="#43210A"/>
<circle cx="9.25831" cy="9.25831" r="9.25831" transform="matrix(-1 0 0 1 21.1139 267.631)" fill="#43210A"/>
<circle cx="84.1588" cy="276.889" r="5.70147" stroke="#5D3315" stroke-width="0.941486"/>
<circle cx="6.17221" cy="6.17221" r="5.70147" transform="matrix(-1 0 0 1 18.0291 270.717)" stroke="#5D3315" stroke-width="0.941486"/>
<path d="M85.8901 276.888C85.8901 278.129 84.9776 279.063 83.9361 279.063C82.8946 279.063 81.982 278.129 81.982 276.888C81.982 275.648 82.8946 274.714 83.9361 274.714C84.9776 274.714 85.8901 275.648 85.8901 276.888Z" stroke="#5D3315" stroke-width="0.941486"/>
<path d="M10.1231 276.888C10.1231 278.129 11.0357 279.063 12.0771 279.063C13.1186 279.063 14.0312 278.129 14.0312 276.888C14.0312 275.648 13.1186 274.714 12.0771 274.714C11.0357 274.714 10.1231 275.648 10.1231 276.888Z" stroke="#5D3315" stroke-width="0.941486"/>
<path d="M69.6093 261.359H74.0181L66.9641 269.736H62.5554L69.6093 261.359Z" fill="#5D3315"/>
<path d="M32.7317 239.172C26.3415 247.104 26.9406 263.563 45.3123 263.563C72.3921 261.465 56.6192 226.169 46.4908 218.885C46.1246 218.622 45.5896 219.06 45.6139 219.51C45.7955 222.877 43.219 229.024 41.3379 232.808C41.139 233.208 40.5552 233.12 40.4747 232.68L40.1086 230.681C40.0107 230.146 38.6737 230.044 38.438 230.534C37.4509 232.585 35.6878 235.503 32.7317 239.172Z" fill="#E49024"/>
<path d="M39.4746 248.057C36.6846 251.522 36.9461 258.713 44.9676 258.713C57.2614 257.76 49.3271 241.126 44.9676 238.874C45.5954 240.191 43.8923 244.043 42.9622 245.805L42.4391 242.946C42.381 243.494 41.7067 245.285 39.4746 248.057Z" fill="#E45224"/>
<ellipse cx="58.2277" cy="224.126" rx="1.10218" ry="2.12769" transform="rotate(45 58.2277 224.126)" fill="#E49024"/>
<ellipse cx="35.2993" cy="213.385" rx="1.10218" ry="2.12769" transform="rotate(-45 35.2993 213.385)" fill="#E49024"/>
<ellipse cx="53.9915" cy="203.352" rx="1.10218" ry="2.12769" transform="rotate(30 53.9915 203.352)" fill="#E49024"/>
<ellipse cx="29.0917" cy="230.936" rx="0.776026" ry="1.49807" transform="rotate(-15 29.0917 230.936)" fill="#E49024"/>
</g>
<defs>
<clipPath id="clip0_20_3334">
<rect width="94.1486" height="94.1486" fill="white" transform="translate(0.717499 196.707)"/>
</clipPath>
</defs>
</svg>
