<svg width="190" height="355" viewBox="0 0 190 355" fill="none" xmlns="http://www.w3.org/2000/svg">
<path d="M43.7393 315.468H63.7713L62.2874 336.984H42.2554L43.7393 315.468Z" fill="#F48C85"/>
<path d="M42.9974 326.597H63.0294V336.984H42.2554L42.9974 326.597Z" fill="#FCC478"/>
<path d="M57.0261 332.782C56.3839 333.999 55.1211 334.76 53.7454 334.76H51.117C49.9104 334.76 48.8254 334.026 48.3774 332.906C47.9293 331.785 46.8443 331.051 45.6377 331.051H40.7726V354.051H52.087L57.7442 351.083H63.4013L71.1916 351.825L74.7157 354.051H86.0301L86.5838 350.174C87.1146 346.459 84.7869 342.932 81.1616 341.959L71.2646 339.304C68.3225 338.515 66.1618 336.007 65.8159 332.981L65.4817 330.056C65.3532 328.932 64.4017 328.083 63.2703 328.083H60.8483C60.0228 328.083 59.2651 328.54 58.8798 329.27L57.0261 332.782Z" fill="#5D3315"/>
<path d="M40.7726 348.115C41.7227 349.065 43.3823 349.599 44.7259 349.599H86.5782V354.05H72.4668C72.1468 353.16 71.3027 352.566 70.3567 352.566H70.2357C69.4407 352.566 68.6967 352.958 68.2463 353.613L67.9456 354.05H61.9175C61.2169 353.116 60.1174 352.566 58.9498 352.566H57.5828C56.3298 352.566 55.1379 353.107 54.3128 354.05H40.7726V348.115Z" fill="#0C0501"/>
<path d="M79.3747 341.477C79.0569 341.844 78.7962 342.266 78.6094 342.733C77.9373 344.414 76.3098 345.515 74.5 345.515H73.4159C71.1623 345.515 69.3353 347.342 69.3353 349.596H86.6421C86.8686 346.097 84.5977 342.879 81.1602 341.956L79.3747 341.477Z" fill="#4A250A"/>
<path d="M40.7726 333.277H44.8387C45.7436 333.277 46.5574 333.828 46.8935 334.668C47.4536 336.068 48.8098 336.986 50.318 336.986H55.4893C56.9229 336.986 58.2281 336.16 58.8418 334.865L60.5725 331.211C60.9408 330.434 61.7239 329.938 62.5841 329.938H65.4649C65.2856 328.873 64.3617 328.083 63.2702 328.083H60.8482C60.0228 328.083 59.2651 328.54 58.8798 329.27L57.0261 332.782C56.3839 333.999 55.1211 334.76 53.7453 334.76H51.1169C49.9104 334.76 48.8254 334.026 48.3773 332.906C47.9292 331.785 46.8442 331.051 45.6377 331.051H40.7726V333.277Z" fill="#4A240A"/>
<path d="M65.6341 331.421H63.0268C62.4122 331.421 61.9139 331.919 61.9139 332.534C61.9139 333.148 62.4122 333.647 63.0268 333.647H65.9193C65.8739 333.427 65.838 333.205 65.8123 332.98L65.8037 332.905H63.0268C62.8219 332.905 62.6558 332.739 62.6558 332.534C62.6558 332.329 62.8219 332.163 63.0268 332.163H65.7189L65.6341 331.421Z" fill="#F1D6A9"/>
<path d="M66.3945 335.13H63.7687C63.1541 335.13 62.6558 335.629 62.6558 336.243C62.6558 336.858 63.1541 337.356 63.7687 337.356H67.9103C67.6799 337.123 67.4651 336.875 67.2674 336.614H63.7687C63.5638 336.614 63.3978 336.448 63.3978 336.243C63.3978 336.038 63.5638 335.872 63.7687 335.872H66.7729C66.6334 335.633 66.507 335.385 66.3945 335.13Z" fill="#F1D6A9"/>
<path fill-rule="evenodd" clip-rule="evenodd" d="M60.0685 329.195C60.0685 333.804 60.2384 337.392 62.6247 339.973C65.0022 342.545 69.4963 344.032 77.8419 344.774L77.9075 344.035C69.5598 343.293 65.3363 341.813 63.1695 339.469C61.0115 337.135 60.8104 333.86 60.8104 329.195H60.0685ZM40.7771 343.292C45.0019 343.292 47.8254 346.116 47.8254 349.599H48.5673C48.5673 345.706 45.4117 342.55 40.7771 342.55V343.292Z" fill="#4A240A"/>
<path d="M125.36 286.712H145.392V308.228H125.36V286.712Z" fill="#F48C85"/>
<path d="M125.36 297.842H135.376H145.392V308.229H125.36V297.842Z" fill="#FCC478"/>
<path d="M139.384 304.027C138.742 305.243 137.479 306.005 136.103 306.005H133.475C132.268 306.005 131.183 305.27 130.735 304.15C130.287 303.03 129.202 302.295 127.996 302.295H124.614L123.13 325.295H134.445L140.102 322.327H145.759L153.549 323.069L157.074 325.295H168.388L168.942 321.419C169.472 317.703 167.145 314.176 163.519 313.204L153.622 310.548C150.68 309.759 148.52 307.251 148.174 304.225L147.839 301.3C147.711 300.176 146.76 299.327 145.628 299.327H143.206C142.381 299.327 141.623 299.784 141.238 300.514L139.384 304.027Z" fill="#5D3315"/>
<path d="M123.501 319.358C124.451 320.308 125.74 320.842 127.084 320.842H168.936V325.293H154.825C154.505 324.403 153.66 323.809 152.715 323.809H152.594C151.799 323.809 151.055 324.201 150.604 324.856L150.303 325.293H144.275C143.575 324.359 142.475 323.809 141.308 323.809H139.941C138.688 323.809 137.496 324.35 136.671 325.293H123.13L123.501 319.358Z" fill="#0C0501"/>
<path d="M161.737 312.72C161.42 313.087 161.159 313.509 160.972 313.976C160.3 315.657 158.672 316.758 156.863 316.758H155.779C153.525 316.758 151.698 318.585 151.698 320.839H169.005C169.231 317.34 166.96 314.122 163.523 313.199L161.737 312.72Z" fill="#4A250A"/>
<path d="M124.472 304.521H127.198C128.103 304.521 128.917 305.072 129.253 305.912C129.813 307.312 131.169 308.23 132.677 308.23H137.849C139.282 308.23 140.588 307.404 141.201 306.109L142.932 302.455C143.3 301.678 144.083 301.182 144.944 301.182H147.824C147.645 300.117 146.721 299.327 145.63 299.327H143.208C142.382 299.327 141.625 299.784 141.239 300.514L139.385 304.027C138.743 305.243 137.481 306.005 136.105 306.005H133.476C132.27 306.005 131.185 305.27 130.737 304.15C130.289 303.03 129.204 302.295 127.997 302.295H124.616L124.472 304.521Z" fill="#4A240A"/>
<path d="M147.997 302.664H145.389C144.775 302.664 144.277 303.162 144.277 303.777C144.277 304.391 144.775 304.89 145.389 304.89H148.282C148.237 304.67 148.201 304.448 148.175 304.223L148.166 304.148H145.389C145.185 304.148 145.019 303.982 145.019 303.777C145.019 303.572 145.185 303.406 145.389 303.406H148.082L147.997 302.664Z" fill="#F1D6A9"/>
<path d="M148.757 306.373H146.131C145.517 306.373 145.019 306.872 145.019 307.486C145.019 308.101 145.517 308.599 146.131 308.599H150.273C150.043 308.366 149.828 308.118 149.63 307.857H146.131C145.927 307.857 145.76 307.691 145.76 307.486C145.76 307.281 145.927 307.115 146.131 307.115H149.136C148.996 306.876 148.87 306.628 148.757 306.373Z" fill="#F1D6A9"/>
<path fill-rule="evenodd" clip-rule="evenodd" d="M142.42 300.436C142.42 305.045 142.59 308.633 144.977 311.214C147.354 313.785 151.848 315.273 160.194 316.015L160.259 315.276C151.912 314.534 147.688 313.054 145.521 310.71C143.363 308.376 143.162 305.101 143.162 300.436H142.42ZM123.873 314.533C127.356 314.533 130.179 317.357 130.179 320.839H130.921C130.921 316.947 127.766 313.791 123.873 313.791V314.533Z" fill="#4A240A"/>
<path d="M113.111 165.408L71.1926 165.779L71.2191 165.965L39.2898 167.084L42.2575 246.841L40.4027 319.92H67.8539L82.6925 196.39L118.119 227.544L120.531 294.695H149.466L151.886 219.319C152 215.774 150.84 212.306 148.617 209.542L113.111 165.408Z" fill="#B4792D"/>
<path d="M83.0614 185.261L67.852 320.291H40.4007" stroke="#6D3A09" stroke-width="1.11289" stroke-linecap="round"/>
<path d="M14.0646 58.942H92.7088V170.231H19.2581C16.3898 170.231 14.0646 167.906 14.0646 165.037V58.942Z" fill="#35401C"/>
<path d="M66.3701 175.795C49.6768 189.52 39.2898 181.73 39.2898 181.73V165.779H113.111C108.289 172.456 75.6442 168.169 66.3701 175.795Z" fill="#AE6128"/>
<path fill-rule="evenodd" clip-rule="evenodd" d="M62.1513 178.26C60.2293 180.237 57.5708 181.872 54.1257 182.079C53.7167 182.104 53.384 181.769 53.384 181.359C53.384 180.95 53.717 180.62 54.1258 180.592C57.0805 180.389 59.3782 178.983 61.0874 177.225C62.6798 175.588 63.7387 173.664 64.3025 172.196C64.4494 171.814 64.8631 171.594 65.2548 171.714C65.6464 171.835 65.8676 172.25 65.7235 172.634C65.1039 174.283 63.9323 176.428 62.1513 178.26Z" fill="#6D3A09"/>
<path d="M77.1287 27.7806C69.1385 27.7806 62.6612 34.258 62.6612 42.2482V58.5706" stroke="#35411C" stroke-width="4.45155"/>
<path d="M20.0008 30.0061V58.9412H92.7095V58.9366C100.528 58.7398 106.806 52.3399 106.806 44.4737C106.806 36.6074 100.528 30.2075 92.7095 30.0107V30.0061H20.0008Z" fill="#C14721"/>
<path d="M105.983 49.2952H22.9689V58.9402H92.7099V58.9356C98.8479 58.7811 104.036 54.8037 105.983 49.2952Z" fill="#A23D1E"/>
<path d="M37.8042 30.0067H26.4548C29.4332 27.2442 33.4214 25.5552 37.8042 25.5552C47.0237 25.5552 54.4975 33.029 54.4975 42.2485V58.9418H50.046V42.2485C50.046 35.4876 44.5651 30.0067 37.8042 30.0067Z" fill="#5D3315"/>
<circle cx="21.1132" cy="44.4737" r="14.4676" fill="#B03815"/>
<path d="M76.7568 27.7806C84.747 27.7806 91.2244 34.258 91.2244 42.2482V59.3125" stroke="#35411C" stroke-width="4.45155"/>
<circle cx="21.1155" cy="44.4724" r="10.016" stroke="#C74522" stroke-width="1.48385"/>
<circle cx="21.1138" cy="44.4744" r="4.08059" stroke="#C74522" stroke-width="1.48385"/>
<rect x="35.9488" y="59.313" width="56.3864" height="80.128" stroke="black" stroke-width="0.741926"/>
<rect x="11.8404" y="83.4246" width="5.19348" height="28.9351" rx="0.741926" fill="#5D3315"/>
<path d="M4.42139 66.3613C4.42139 62.2637 7.74311 58.942 11.8406 58.942H92.7106V93.8125H7.3891C5.75008 93.8125 4.42139 92.4838 4.42139 90.8448V66.3613Z" fill="#151C05"/>
<rect x="0.709438" y="111.619" width="63.0637" height="51.9348" rx="7.41926" fill="#151D05"/>
<path d="M14.0646 58.942H32.6128C34.2518 58.942 35.5805 60.2707 35.5805 61.9097V170.231H20C16.722 170.231 14.0646 167.573 14.0646 164.295V58.942Z" fill="#242F0E"/>
<path d="M17.6299 169.738C15.5315 168.823 14.0646 166.731 14.0646 164.295V152.319L22.4959 143.888L27.7421 149.134L32.6128 152.053V154.65L17.6299 169.738Z" fill="#182103"/>
<path d="M22.9689 58.942H25.1947V80.0869C25.1947 80.7015 24.6964 81.1998 24.0818 81.1998C23.4672 81.1998 22.9689 80.7015 22.9689 80.0869V58.942Z" fill="#151C05"/>
<path d="M8.12844 111.619H9.6123V126.458C9.6123 126.867 9.28012 127.199 8.87037 127.199C8.46062 127.199 8.12844 126.867 8.12844 126.458V111.619Z" fill="#090D01"/>
<rect x="22.2251" y="124.973" width="4.45155" height="2.9677" fill="#902808"/>
<path d="M31.8708 130.91C31.8708 128.451 29.8777 126.458 27.4192 126.458H21.4838C19.0253 126.458 17.0323 128.451 17.0323 130.91V147.974H31.8708V130.91Z" fill="#B33913"/>
<path d="M31.8708 147.974H19.258V130.91C19.258 128.451 21.5168 126.458 24.3031 126.458H26.8257C30.016 126.458 31.8708 128.451 31.8708 130.91V147.974Z" fill="#C14721"/>
<rect x="21.4837" y="121.262" width="5.93541" height="4.45155" rx="0.741926" fill="#B03815"/>
<path d="M16.2913 134.619H32.6137V153.167C32.6137 155.216 30.9528 156.876 28.9041 156.876H24.4525H20.001C17.9522 156.876 16.2913 155.216 16.2913 153.167V134.619Z" fill="#151C05"/>
<path d="M65.4822 40.7591C57.6999 40.2487 58.5547 33.9566 58.7141 25.0549L69.1459 22.6446C69.7087 25.7466 69.7639 33.7122 65.4822 40.7591Z" fill="#0D0A07"/>
<path d="M71.4128 14.8399C66.6666 14.5853 62.7077 18.4243 62.8164 23.1762L63.0109 31.672C63.0242 32.2566 63.1371 32.8347 63.3445 33.3816C63.5529 33.9311 63.7269 33.8377 63.7397 34.4232L64.1526 52.7962L63.1882 65.2082L83.5131 65.2012L83.7656 51.1069L84.9829 51.1287C89.0798 51.2021 92.4605 47.9404 92.5339 43.8436L92.8793 24.5596C93.3536 19.9217 89.8531 15.8295 85.1978 15.5797L71.4128 14.8399Z" fill="#F48C85"/>
<path d="M73.8325 50.9275L84.5887 51.1202L84.5089 55.571L73.8325 50.9275Z" fill="#D4625A"/>
<circle cx="79.7846" cy="29.0616" r="1.11289" transform="rotate(1.02629 79.7846 29.0616)" fill="#0D0A07"/>
<path fill-rule="evenodd" clip-rule="evenodd" d="M81.4283 26.1951C79.8428 25.2671 77.841 25.5983 76.6355 26.9397C76.4986 27.0921 76.2676 27.1285 76.1028 27.0067C75.938 26.885 75.9021 26.6514 76.0367 26.4969C77.4696 24.8516 79.8902 24.4352 81.8031 25.5548L82.0743 25.7136C82.2511 25.8171 82.3106 26.0443 82.2071 26.2212C82.1036 26.398 81.8764 26.4574 81.6996 26.3539L81.4283 26.1951Z" fill="#0D0A07"/>
<circle cx="88.6913" cy="29.3023" r="1.11289" transform="rotate(1.02629 88.6913 29.3023)" fill="#0D0A07"/>
<path fill-rule="evenodd" clip-rule="evenodd" d="M86.3658 26.3653C87.9835 25.4946 89.9722 25.8973 91.1289 27.281C91.2603 27.4382 91.4898 27.4828 91.6589 27.3671C91.8279 27.2513 91.8721 27.0192 91.7432 26.8599C90.3701 25.1644 87.9659 24.6616 86.0142 25.7119L85.7374 25.8609C85.557 25.958 85.4895 26.183 85.5866 26.3634C85.6837 26.5438 85.9086 26.6113 86.089 26.5142L86.3658 26.3653Z" fill="#0D0A07"/>
<path d="M78.985 124.685H91.6389V131.359L85.657 138.308H78.985V124.685Z" stroke="black" stroke-width="0.741926"/>
<path d="M81.2043 121.718H93.8583V128.392L87.8764 135.341H81.2043V121.718Z" stroke="black" stroke-width="0.741926"/>
<path d="M79.353 124.314H92.7488V131.496L86.5661 138.679H79.353V124.314Z" fill="#151C05"/>
<path d="M84.0543 125.159L101.572 112.907V106.57H111.876V111.755C111.876 113.552 111.062 115.253 109.662 116.379L84.0543 136.989V125.159Z" fill="#151C05"/>
<path d="M92.5577 70.9285C92.5472 64.8366 97.4786 59.8904 103.571 59.8826C108.621 59.8761 113.031 63.3022 114.273 68.198L126.467 116.262L110.842 124.004C102.467 128.154 92.6452 122.071 92.6292 112.724L92.5577 70.9285Z" fill="#1A3A2D"/>
<path d="M63.7744 53.0059C62.5451 53.0059 61.5486 54.0024 61.5486 55.2316V58.3405C61.5486 59.1028 60.9711 59.741 60.2126 59.817L46.7303 61.167C44.0245 61.167 41.5862 62.8 40.5559 65.302L37.4446 72.8581C37.1946 73.4651 37.0821 74.1198 37.1149 74.7753L40.5559 127.569L39.2908 156.134C39.2908 158.592 41.2838 163.553 43.7424 163.553H107.481C109.966 163.553 114.195 158.551 114.158 156.067L110.643 123.489V69.6983C110.572 64.9662 107.087 59.6832 102.354 59.6832H89.3708C88.5513 59.6832 87.8869 59.0188 87.8869 58.1993V55.2316C87.8869 54.0024 86.8904 53.0059 85.6611 53.0059H63.7744Z" fill="#1F4636"/>
<rect x="71.562" y="130.909" width="3.70963" height="17.0643" rx="0.741926" transform="rotate(30 71.562 130.909)" fill="#113325"/>
<path fill-rule="evenodd" clip-rule="evenodd" d="M87.8813 60.4248H96.1697C98.8356 60.4248 101.069 62.4433 101.337 65.0957L105.316 104.446C105.316 106.085 106.645 107.413 108.284 107.413H116.445L111.993 66.3602C111.993 63.0821 109.336 60.4248 106.058 60.4248H106.8C106.8 59.1955 105.803 58.199 104.574 58.199H87.8813V60.4248Z" fill="#151C05"/>
<rect width="3.70963" height="17.0643" rx="0.741926" transform="matrix(-0.866025 0.5 0.5 0.866025 100.373 130.909)" fill="#113325"/>
<path d="M104.578 101.973H111.997V111.618C107.9 111.618 104.578 108.297 104.578 104.199V101.973Z" fill="#151C05"/>
<path d="M41.0206 138.512L52.2043 130.69C56.1738 127.914 58.5383 123.375 58.5383 118.531V105.826H68.8428V120.845C68.8428 125.337 66.8075 129.588 63.3077 132.405L41.0206 150.342V138.512Z" fill="#151C05"/>
<path d="M44.3503 136.185L41.0206 138.514V150.344L49.5691 143.464C49.6661 143.264 49.7176 143.043 49.7176 142.817V137.669C49.7176 136.85 49.0532 136.185 48.2337 136.185H44.3503Z" fill="#0F1503"/>
<path d="M34.834 139.151C34.834 138.331 35.4984 137.667 36.3179 137.667H46.746C47.5655 137.667 48.2299 138.331 48.2299 139.151V144.299C48.2299 144.654 48.1024 144.997 47.8706 145.267L42.4912 151.516C42.2093 151.843 41.7987 152.031 41.3666 152.031H36.3179C35.4984 152.031 34.834 151.367 34.834 150.548V139.151Z" fill="#151C05"/>
<path d="M50.4201 114.778L56.7264 70.2626L38.9202 89.7318C38.5493 90.5974 37.0654 94.1091 37.0654 104.199C37.0654 104.199 38.1783 124.794 50.4201 114.778Z" fill="#193F2F"/>
<path d="M66.0002 53.7496V59.685" stroke="#113325" stroke-width="0.741926"/>
<path d="M73.4192 53.7496V59.685" stroke="#113325" stroke-width="0.741926"/>
<path d="M50.4159 59.6835H64.5125C68.61 59.6835 71.9317 63.0052 71.9317 67.1027V102.221C71.9317 104.679 69.9387 106.672 67.4802 106.672H58.5359V68.9386C58.5359 66.408 57.246 64.052 55.1142 62.6885L50.4159 59.6835Z" fill="#151C05"/>
<path d="M68.9659 101.973H61.5466V111.618C65.6441 111.618 68.9659 108.297 68.9659 104.199V101.973Z" fill="#151C05"/>
<path d="M83.4344 60.9875L83.8054 69.8907L86.4021 135.551L87.1279 138.938C88.8289 146.876 88.0578 155.145 84.9183 162.631V162.631" stroke="#113325" stroke-width="1.48385"/>
<path d="M37.0631 154.65C37.0631 153.831 37.7274 153.166 38.5469 153.166H113.481C114.301 153.166 114.965 153.831 114.965 154.65V164.295C114.965 165.115 114.301 165.779 113.481 165.779H38.5469C37.7274 165.779 37.0631 165.115 37.0631 164.295V154.65Z" fill="#1F4636"/>
<path fill-rule="evenodd" clip-rule="evenodd" d="M37.435 153.166C37.435 152.962 37.6011 152.796 37.806 152.796H114.224C114.429 152.796 114.595 152.962 114.595 153.166C114.595 153.371 114.429 153.537 114.224 153.537H37.806C37.6011 153.537 37.435 153.371 37.435 153.166Z" fill="#113325"/>
<path d="M35.5779 59.3134C35.5779 58.6988 36.0761 58.2006 36.6907 58.2006H63.771C65.0003 58.2006 65.9968 59.1971 65.9968 60.4263H36.6907C36.0761 60.4263 35.5779 59.9281 35.5779 59.3134Z" fill="#151C05"/>
<path d="M35.512 65.6599C37.912 60.5964 43.5878 57.9714 49.0004 59.4217C55.9172 61.275 59.5208 68.8896 56.5685 75.4135L34.1326 124.992C32.7893 127.96 29.6666 129.705 26.4345 129.293L16.7005 128.051C11.6957 127.413 8.77398 122.073 10.9349 117.514L35.512 65.6599Z" fill="#1A3A2D"/>
<path d="M46.9358 99.1617C48.7485 98.2624 50.9475 98.9818 51.8783 100.778L58.0208 112.635C58.9432 114.416 58.2838 116.607 56.5321 117.583L26.46 134.333C22.0589 136.784 16.5022 135.099 14.2045 130.615L12.1011 126.511C9.8378 122.094 11.6222 116.68 16.0678 114.475L46.9358 99.1617Z" fill="#1A3A2D"/>
<path d="M56.5715 94.4564L69.3669 87.314C70.8567 86.4824 72.7836 87.0354 73.5872 88.5253L74.7539 90.6881L77.2025 100.591C77.6884 102.557 76.8414 104.587 75.0878 105.659L69.5664 109.034C68.2407 109.845 66.6937 110.263 65.1134 110.239L62.4552 111.618L57.6357 106.127L53.1784 99.9412L54.7569 98.5922L56.5715 94.4564Z" fill="#F48C85"/>
<path d="M56.2684 95.383L56.4279 94.0559C56.5204 93.2856 56.7829 92.5454 57.1964 91.8889C57.8532 90.846 58.8566 90.0679 60.0303 89.6916L66.6939 87.555C68.0535 87.1191 69.5381 87.3315 70.7209 88.1313L70.7673 88.1626C70.8388 88.211 70.8884 88.2855 70.9054 88.3701C71.2283 89.9759 70.3194 91.5744 68.7742 92.1179L57.2512 96.1714C56.7327 96.3538 56.2028 95.9287 56.2684 95.383Z" fill="#F48C85"/>
<rect x="55.5134" y="96.2729" width="16.9972" height="6.57929" rx="0.741926" transform="rotate(61.321 55.5134 96.2729)" fill="#1A3A2D"/>
<path d="M58.8596 16.8886C59 9.04784 64.9462 2.53338 72.7416 1.67981L76.4834 1.27011C76.5459 1.26326 76.6091 1.26439 76.6713 1.27347L80.396 1.81693C88.1559 2.94916 93.8649 9.67241 93.7245 17.5132L93.6512 21.6009C93.6439 22.0105 93.3058 22.3367 92.8962 22.3294L59.5148 21.7314C59.1052 21.724 58.779 21.386 58.7863 20.9763L58.8596 16.8886Z" fill="#993E00"/>
<path fill-rule="evenodd" clip-rule="evenodd" d="M89.9275 22.2752C90.3372 22.2825 90.6753 21.9563 90.6826 21.5467L90.7621 17.1079C90.8999 9.41906 85.4072 2.77976 77.8288 1.4745L76.6887 1.27808C76.656 1.27242 76.623 1.26902 76.59 1.26779C76.5477 1.26631 76.5052 1.26836 76.4631 1.27403L75.3167 1.4295C67.6964 2.46249 61.9694 8.90079 61.8317 16.5896L61.7522 21.0284C61.7448 21.4381 62.071 21.7762 62.4807 21.7835L89.9275 22.2752ZM89.9408 21.5334L90.0203 17.0946C90.135 10.692 86.1504 5.05354 80.3227 2.90671C83.636 5.1113 85.7149 8.89573 85.6405 13.0499L85.49 21.4536L89.9408 21.5334ZM67.0954 12.7177C67.1698 8.56351 69.383 4.85598 72.773 2.77146C66.8723 4.70819 62.6882 10.2003 62.5735 16.6029L62.494 21.0417L66.9448 21.1214L67.0954 12.7177ZM67.8372 12.731L67.6866 21.1347L72.1375 21.2145L72.3766 7.86374C72.4123 5.87131 73.2359 4.00849 74.6153 2.65084C70.6284 4.35626 67.9171 8.26892 67.8372 12.731ZM78.4859 2.72017C82.4093 4.56731 84.9787 8.57456 84.8987 13.0366L84.7482 21.4404L80.2973 21.3606L80.5365 8.00992C80.5722 6.01749 79.8158 4.12637 78.4859 2.72017ZM79.5555 21.3473L79.7947 7.99663C79.8377 5.594 78.6025 3.35489 76.561 2.10751C74.4761 3.28096 73.1615 5.4744 73.1184 7.87703L72.8793 21.2277L79.5555 21.3473Z" fill="#B4510E"/>
<path d="M74.3511 21.996L58.7732 21.7169L58.6735 27.2805C59.7376 26.772 64.4713 27.4621 66.2921 27.7229C66.612 27.7687 66.8659 28.0134 66.9236 28.3313L67.5021 31.5199L68.6145 31.5398C69.0242 31.5471 69.3461 31.2156 69.4382 30.8163C69.893 28.845 72.1256 29.9051 73.503 27.9171C75.0265 25.7183 74.3511 21.996 74.3511 21.996Z" fill="#0D0A07"/>
<rect x="58.095" y="17.9977" width="36.3544" height="5.93541" rx="0.741926" transform="rotate(1.02629 58.095 17.9977)" fill="#7C3200"/>
<path d="M68.2286 30.0506C68.5178 34.508 66.5359 34.4725 64.0911 34.4287C61.6464 34.3849 60.0691 32.3633 60.1131 29.9052C60.1572 27.4471 61.8058 25.4832 64.2506 25.527C66.6954 25.5708 68.2727 27.5924 68.2286 30.0506Z" fill="#F48C85"/>
<path fill-rule="evenodd" clip-rule="evenodd" d="M63.1189 28.1841C63.2809 28.0587 63.5139 28.0883 63.6393 28.2503L65.5665 30.7391C65.6919 30.9011 65.6623 31.1341 65.5003 31.2595C65.3383 31.3849 65.1053 31.3553 64.9799 31.1933L63.0527 28.7045C62.9273 28.5426 62.9569 28.3096 63.1189 28.1841Z" fill="#CD574F"/>
<rect x="60.295" y="19.5194" width="4.45155" height="2.9677" rx="0.741926" transform="rotate(1.02629 60.295 19.5194)" fill="#F9A76F"/>
<path d="M77.6837 1.82916C77.699 1.75883 77.6823 1.72508 77.6837 1.65038C77.6947 1.03585 77.2054 0.528745 76.5909 0.517736C75.9763 0.506727 75.4692 0.99598 75.4582 1.61051C75.4569 1.68521 75.4629 1.75833 75.4757 1.82916L77.6837 1.82916Z" fill="#993E00"/>
<path d="M84.6308 32.5646L85.6571 37.4062L83.8026 37.373" stroke="black" stroke-width="0.741926" stroke-linecap="round" stroke-linejoin="round"/>
<path d="M86.2541 40.6204L80.9637 40.1828C80.7382 40.1641 80.548 40.3498 80.5782 40.574C80.7525 41.8647 81.4119 43.607 83.3427 43.4603C85.2316 43.3169 86.2292 42.0232 86.5567 41.0437C86.6255 40.838 86.4703 40.6383 86.2541 40.6204Z" fill="#EDEDED"/>
<path fill-rule="evenodd" clip-rule="evenodd" d="M86.5635 41.0261L80.5895 40.6414C80.5862 40.6185 80.583 40.5958 80.5799 40.5732C80.5496 40.349 80.7399 40.1633 80.9654 40.182L86.2558 40.6196C86.4661 40.637 86.6187 40.8264 86.5635 41.0261Z" fill="#CC584F"/>
<path d="M108.29 347.372C108.29 335.079 118.255 325.114 130.548 325.114H166.219C168.928 325.114 171.422 326.59 172.724 328.966L176.918 336.614L183.046 338.304C185.864 339.081 187.962 341.44 188.406 344.328L189.902 354.049H108.29V347.372Z" fill="#151C05"/>
<path d="M121.768 132.265L126.098 129.896C129.538 128.014 131.153 123.95 129.943 120.219L118.675 85.4738L114.594 88.8124L104.919 103.863C104.701 104.202 104.63 104.614 104.723 105.006L109.908 126.98C111.146 132.226 117.039 134.853 121.768 132.265Z" fill="#1A3A2D"/>
<path d="M99.1981 91.2228C99.0842 90.6325 99.3377 90.0318 99.8401 89.7016L104.489 86.6456C106.817 85.1155 109.806 85.0183 112.228 86.394L113.731 87.2472C114.779 87.8427 115.473 88.9106 115.591 90.1107L116.881 103.267C117.099 105.486 115.323 107.395 113.094 107.338L106.884 107.178C105.84 107.151 104.955 106.402 104.756 105.377L103.415 98.4765L102.334 98.8075C101.491 99.0658 100.61 98.5359 100.443 97.67L99.1981 91.2228Z" fill="#F48C85"/>
<path d="M77.1287 27.7806C69.1385 27.7806 62.6612 34.258 62.6612 42.2482V58.5706" stroke="#35411C" stroke-width="4.45155"/>
<path d="M20.0008 30.0061V58.9412H92.7095V58.9366C100.528 58.7398 106.806 52.3399 106.806 44.4737C106.806 36.6074 100.528 30.2075 92.7095 30.0107V30.0061H20.0008Z" fill="#C14721"/>
<path d="M105.983 49.2952H22.9689V58.9402H92.7099V58.9356C98.8479 58.7811 104.036 54.8037 105.983 49.2952Z" fill="#A23D1E"/>
<path d="M37.8042 30.0067H26.4548C29.4332 27.2442 33.4214 25.5552 37.8042 25.5552C47.0237 25.5552 54.4975 33.029 54.4975 42.2485V58.9418H50.046V42.2485C50.046 35.4876 44.5651 30.0067 37.8042 30.0067Z" fill="#5D3315"/>
<circle cx="21.1132" cy="44.4737" r="14.4676" fill="#B03815"/>
<path d="M76.7568 27.7806C84.747 27.7806 91.2244 34.258 91.2244 42.2482V59.3125" stroke="#35411C" stroke-width="4.45155"/>
<circle cx="21.1155" cy="44.4724" r="10.016" stroke="#C74522" stroke-width="1.48385"/>
<circle cx="21.1138" cy="44.4744" r="4.08059" stroke="#C74522" stroke-width="1.48385"/>
<rect x="35.9488" y="59.313" width="56.3864" height="80.128" stroke="black" stroke-width="0.741926"/>
<rect x="11.8404" y="83.4246" width="5.19348" height="28.9351" rx="0.741926" fill="#5D3315"/>
<path d="M4.42139 66.3613C4.42139 62.2637 7.74311 58.942 11.8406 58.942H92.7106V93.8125H7.3891C5.75008 93.8125 4.42139 92.4838 4.42139 90.8448V66.3613Z" fill="#151C05"/>
<rect x="0.709438" y="111.619" width="63.0637" height="51.9348" rx="7.41926" fill="#151D05"/>
<path d="M14.0646 58.942H32.6128C34.2518 58.942 35.5805 60.2707 35.5805 61.9097V170.231H20C16.722 170.231 14.0646 167.573 14.0646 164.295V58.942Z" fill="#242F0E"/>
<path d="M17.6299 169.738C15.5315 168.823 14.0646 166.731 14.0646 164.295V152.319L22.4959 143.888L27.7421 149.134L32.6128 152.053V154.65L17.6299 169.738Z" fill="#182103"/>
<path d="M22.9689 58.942H25.1947V80.0869C25.1947 80.7015 24.6964 81.1998 24.0818 81.1998C23.4672 81.1998 22.9689 80.7015 22.9689 80.0869V58.942Z" fill="#151C05"/>
<path d="M8.12844 111.619H9.6123V126.458C9.6123 126.867 9.28012 127.199 8.87037 127.199C8.46062 127.199 8.12844 126.867 8.12844 126.458V111.619Z" fill="#090D01"/>
<rect x="22.2251" y="124.973" width="4.45155" height="2.9677" fill="#902808"/>
<path d="M31.8708 130.91C31.8708 128.451 29.8777 126.458 27.4192 126.458H21.4838C19.0253 126.458 17.0323 128.451 17.0323 130.91V147.974H31.8708V130.91Z" fill="#B33913"/>
<path d="M31.8708 147.974H19.258V130.91C19.258 128.451 21.5168 126.458 24.3031 126.458H26.8257C30.016 126.458 31.8708 128.451 31.8708 130.91V147.974Z" fill="#C14721"/>
<rect x="21.4837" y="121.262" width="5.93541" height="4.45155" rx="0.741926" fill="#B03815"/>
<path d="M16.2913 134.619H32.6137V153.167C32.6137 155.216 30.9528 156.876 28.9041 156.876H24.4525H20.001C17.9522 156.876 16.2913 155.216 16.2913 153.167V134.619Z" fill="#151C05"/>
<path d="M65.4822 40.7591C57.6999 40.2487 58.5547 33.9566 58.7141 25.0549L69.1459 22.6446C69.7087 25.7466 69.7639 33.7122 65.4822 40.7591Z" fill="#0D0A07"/>
<path d="M71.4128 14.8399C66.6666 14.5853 62.7077 18.4243 62.8164 23.1762L63.0109 31.672C63.0242 32.2566 63.1371 32.8347 63.3445 33.3816C63.5529 33.9311 63.7269 33.8377 63.7397 34.4232L64.1526 52.7962L63.1882 65.2082L83.5131 65.2012L83.7656 51.1069L84.9829 51.1287C89.0798 51.2021 92.4605 47.9404 92.5339 43.8436L92.8793 24.5596C93.3536 19.9217 89.8531 15.8295 85.1978 15.5797L71.4128 14.8399Z" fill="#F48C85"/>
<path d="M73.8325 50.9275L84.5887 51.1202L84.5089 55.571L73.8325 50.9275Z" fill="#C6443A"/>
<circle cx="79.7846" cy="29.0616" r="1.11289" transform="rotate(1.02629 79.7846 29.0616)" fill="#0D0A07"/>
<path fill-rule="evenodd" clip-rule="evenodd" d="M81.4283 26.1951C79.8428 25.2671 77.841 25.5983 76.6355 26.9397C76.4986 27.0921 76.2676 27.1285 76.1028 27.0067C75.938 26.885 75.9021 26.6514 76.0367 26.4969C77.4696 24.8516 79.8902 24.4352 81.8031 25.5548L82.0743 25.7136C82.2511 25.8171 82.3106 26.0443 82.2071 26.2212C82.1036 26.398 81.8764 26.4574 81.6996 26.3539L81.4283 26.1951Z" fill="#0D0A07"/>
<circle cx="88.6913" cy="29.3023" r="1.11289" transform="rotate(1.02629 88.6913 29.3023)" fill="#0D0A07"/>
<path fill-rule="evenodd" clip-rule="evenodd" d="M86.3658 26.3653C87.9835 25.4946 89.9722 25.8973 91.1289 27.281C91.2603 27.4382 91.4898 27.4828 91.6589 27.3671C91.8279 27.2513 91.8721 27.0192 91.7432 26.8599C90.3701 25.1644 87.9659 24.6616 86.0142 25.7119L85.7374 25.8609C85.557 25.958 85.4895 26.183 85.5866 26.3634C85.6837 26.5438 85.9086 26.6113 86.089 26.5142L86.3658 26.3653Z" fill="#0D0A07"/>
<path d="M78.985 124.685H91.6389V131.359L85.657 138.308H78.985V124.685Z" stroke="black" stroke-width="0.741926"/>
<path d="M81.2043 121.718H93.8583V128.392L87.8764 135.341H81.2043V121.718Z" stroke="black" stroke-width="0.741926"/>
<path d="M79.353 124.314H92.7488V131.496L86.5661 138.679H79.353V124.314Z" fill="#151C05"/>
<path d="M84.0543 125.159L101.572 112.907V106.57H111.876V111.755C111.876 113.552 111.062 115.253 109.662 116.379L84.0543 136.989V125.159Z" fill="#151C05"/>
<path d="M92.5577 70.9285C92.5472 64.8366 97.4786 59.8904 103.571 59.8826C108.621 59.8761 113.031 63.3022 114.273 68.198L126.467 116.262L110.842 124.004C102.467 128.154 92.6452 122.071 92.6292 112.724L92.5577 70.9285Z" fill="#1A3A2D"/>
<path d="M63.7744 53.0059C62.5451 53.0059 61.5486 54.0024 61.5486 55.2316V58.3405C61.5486 59.1028 60.9711 59.741 60.2126 59.817L46.7303 61.167C44.0245 61.167 41.5862 62.8 40.5559 65.302L37.4446 72.8581C37.1946 73.4651 37.0821 74.1198 37.1149 74.7753L40.5559 127.569L39.2908 156.134C39.2908 158.592 41.2838 163.553 43.7424 163.553H107.481C109.966 163.553 114.195 158.551 114.158 156.067L110.643 123.489V69.6983C110.572 64.9662 107.087 59.6832 102.354 59.6832H89.3708C88.5513 59.6832 87.8869 59.0188 87.8869 58.1993V55.2316C87.8869 54.0024 86.8904 53.0059 85.6611 53.0059H63.7744Z" fill="#1F4636"/>
<rect x="71.562" y="130.909" width="3.70963" height="17.0643" rx="0.741926" transform="rotate(30 71.562 130.909)" fill="#113325"/>
<path fill-rule="evenodd" clip-rule="evenodd" d="M87.8813 60.4248H96.1697C98.8356 60.4248 101.069 62.4433 101.337 65.0957L105.316 104.446C105.316 106.085 106.645 107.413 108.284 107.413H116.445L111.993 66.3602C111.993 63.0821 109.336 60.4248 106.058 60.4248H106.8C106.8 59.1955 105.803 58.199 104.574 58.199H87.8813V60.4248Z" fill="#151C05"/>
<rect width="3.70963" height="17.0643" rx="0.741926" transform="matrix(-0.866025 0.5 0.5 0.866025 100.373 130.909)" fill="#113325"/>
<path d="M104.578 101.973H111.997V111.618C107.9 111.618 104.578 108.297 104.578 104.199V101.973Z" fill="#151C05"/>
<path d="M41.0206 138.512L52.2043 130.69C56.1738 127.914 58.5383 123.375 58.5383 118.531V105.826H68.8428V120.845C68.8428 125.337 66.8075 129.588 63.3077 132.405L41.0206 150.342V138.512Z" fill="#151C05"/>
<path d="M44.3503 136.185L41.0206 138.514V150.344L49.5691 143.464C49.6661 143.264 49.7176 143.043 49.7176 142.817V137.669C49.7176 136.85 49.0532 136.185 48.2337 136.185H44.3503Z" fill="#0F1503"/>
<path d="M34.834 139.151C34.834 138.331 35.4984 137.667 36.3179 137.667H46.746C47.5655 137.667 48.2299 138.331 48.2299 139.151V144.299C48.2299 144.654 48.1024 144.997 47.8706 145.267L42.4912 151.516C42.2093 151.843 41.7987 152.031 41.3666 152.031H36.3179C35.4984 152.031 34.834 151.367 34.834 150.548V139.151Z" fill="#151C05"/>
<path d="M50.4201 114.778L56.7264 70.2626L38.9202 89.7318C38.5493 90.5974 37.0654 94.1091 37.0654 104.199C37.0654 104.199 38.1783 124.794 50.4201 114.778Z" fill="#193F2F"/>
<path d="M66.0002 53.7496V59.685" stroke="#113325" stroke-width="0.741926"/>
<path d="M73.4192 53.7496V59.685" stroke="#113325" stroke-width="0.741926"/>
<path d="M50.4159 59.6835H64.5125C68.61 59.6835 71.9317 63.0052 71.9317 67.1027V102.221C71.9317 104.679 69.9387 106.672 67.4802 106.672H58.5359V68.9386C58.5359 66.408 57.246 64.052 55.1142 62.6885L50.4159 59.6835Z" fill="#151C05"/>
<path d="M68.9659 101.973H61.5466V111.618C65.6441 111.618 68.9659 108.297 68.9659 104.199V101.973Z" fill="#151C05"/>
<path d="M82.693 53.5698L83.064 66.5535L86.4026 135.553L87.1285 138.94C88.8295 146.878 88.0583 155.146 84.9188 162.633V162.633" stroke="#113325" stroke-width="1.48385"/>
<path d="M37.0631 154.65C37.0631 153.831 37.7274 153.166 38.5469 153.166H113.481C114.301 153.166 114.965 153.831 114.965 154.65V164.295C114.965 165.115 114.301 165.779 113.481 165.779H38.5469C37.7274 165.779 37.0631 165.115 37.0631 164.295V154.65Z" fill="#1F4636"/>
<path fill-rule="evenodd" clip-rule="evenodd" d="M37.435 153.166C37.435 152.962 37.6011 152.796 37.806 152.796H114.224C114.429 152.796 114.595 152.962 114.595 153.166C114.595 153.371 114.429 153.537 114.224 153.537H37.806C37.6011 153.537 37.435 153.371 37.435 153.166Z" fill="#113325"/>
<path d="M35.5779 59.3134C35.5779 58.6988 36.0761 58.2006 36.6907 58.2006H63.771C65.0003 58.2006 65.9968 59.1971 65.9968 60.4263H36.6907C36.0761 60.4263 35.5779 59.9281 35.5779 59.3134Z" fill="#151C05"/>
<path d="M35.512 65.6599C37.912 60.5964 43.5878 57.9714 49.0004 59.4217C55.9172 61.275 59.5208 68.8896 56.5685 75.4135L34.1326 124.992C32.7893 127.96 29.6666 129.705 26.4345 129.293L16.7005 128.051C11.6957 127.413 8.77398 122.073 10.9349 117.514L35.512 65.6599Z" fill="#1A3A2D"/>
<path d="M46.9358 99.1617C48.7485 98.2624 50.9475 98.9818 51.8783 100.778L58.0208 112.635C58.9432 114.416 58.2838 116.607 56.5321 117.583L26.46 134.333C22.0589 136.784 16.5022 135.099 14.2045 130.615L12.1011 126.511C9.8378 122.094 11.6222 116.68 16.0678 114.475L46.9358 99.1617Z" fill="#1A3A2D"/>
<path d="M56.5715 94.4564L69.3669 87.314C70.8567 86.4824 72.7836 87.0354 73.5872 88.5253L74.7539 90.6881L77.2025 100.591C77.6884 102.557 76.8414 104.587 75.0878 105.659L69.5664 109.034C68.2407 109.845 66.6937 110.263 65.1134 110.239L62.4552 111.618L57.6357 106.127L53.1784 99.9412L54.7569 98.5922L56.5715 94.4564Z" fill="#F48C85"/>
<path d="M56.2684 95.383L56.4279 94.0559C56.5204 93.2856 56.7829 92.5454 57.1964 91.8889C57.8532 90.846 58.8566 90.0679 60.0303 89.6916L66.6939 87.555C68.0535 87.1191 69.5381 87.3315 70.7209 88.1313L70.7673 88.1626C70.8388 88.211 70.8884 88.2855 70.9054 88.3701C71.2283 89.9759 70.3194 91.5744 68.7742 92.1179L57.2512 96.1714C56.7327 96.3538 56.2028 95.9287 56.2684 95.383Z" fill="#F48C85"/>
<rect x="55.5134" y="96.2729" width="16.9972" height="6.57929" rx="0.741926" transform="rotate(61.321 55.5134 96.2729)" fill="#1A3A2D"/>
<path d="M58.8596 16.8886C59 9.04784 64.9462 2.53338 72.7416 1.67981L76.4834 1.27011C76.5459 1.26326 76.6091 1.26439 76.6713 1.27347L80.396 1.81693C88.1559 2.94916 93.8649 9.67241 93.7245 17.5132L93.6512 21.6009C93.6439 22.0105 93.3058 22.3367 92.8962 22.3294L59.5148 21.7314C59.1052 21.724 58.779 21.386 58.7863 20.9763L58.8596 16.8886Z" fill="#993E00"/>
<path fill-rule="evenodd" clip-rule="evenodd" d="M89.9275 22.2752C90.3372 22.2825 90.6753 21.9563 90.6826 21.5467L90.7621 17.1079C90.8999 9.41906 85.4072 2.77976 77.8288 1.4745L76.6887 1.27808C76.656 1.27242 76.623 1.26902 76.59 1.26779C76.5477 1.26631 76.5052 1.26836 76.4631 1.27403L75.3167 1.4295C67.6964 2.46249 61.9694 8.90079 61.8317 16.5896L61.7522 21.0284C61.7448 21.4381 62.071 21.7762 62.4807 21.7835L89.9275 22.2752ZM89.9408 21.5334L90.0203 17.0946C90.135 10.692 86.1504 5.05354 80.3227 2.90671C83.636 5.1113 85.7149 8.89573 85.6405 13.0499L85.49 21.4536L89.9408 21.5334ZM67.0954 12.7177C67.1698 8.56351 69.383 4.85598 72.773 2.77146C66.8723 4.70819 62.6882 10.2003 62.5735 16.6029L62.494 21.0417L66.9448 21.1214L67.0954 12.7177ZM67.8372 12.731L67.6866 21.1347L72.1375 21.2145L72.3766 7.86374C72.4123 5.87131 73.2359 4.00849 74.6153 2.65084C70.6284 4.35626 67.9171 8.26892 67.8372 12.731ZM78.4859 2.72017C82.4093 4.56731 84.9787 8.57456 84.8987 13.0366L84.7482 21.4404L80.2973 21.3606L80.5365 8.00992C80.5722 6.01749 79.8158 4.12637 78.4859 2.72017ZM79.5555 21.3473L79.7947 7.99663C79.8377 5.594 78.6025 3.35489 76.561 2.10751C74.4761 3.28096 73.1615 5.4744 73.1184 7.87703L72.8793 21.2277L79.5555 21.3473Z" fill="#B4510E"/>
<path d="M74.3511 21.996L58.7732 21.7169L58.6735 27.2805C59.7376 26.772 64.4713 27.4621 66.2921 27.7229C66.612 27.7687 66.8659 28.0134 66.9236 28.3313L67.5021 31.5199L68.6145 31.5398C69.0242 31.5471 69.3461 31.2156 69.4382 30.8163C69.893 28.845 72.1256 29.9051 73.503 27.9171C75.0265 25.7183 74.3511 21.996 74.3511 21.996Z" fill="#0D0A07"/>
<rect x="58.095" y="17.9977" width="36.3544" height="5.93541" rx="0.741926" transform="rotate(1.02629 58.095 17.9977)" fill="#7C3200"/>
<path d="M68.2286 30.0506C68.5178 34.508 66.5359 34.4725 64.0911 34.4287C61.6464 34.3849 60.0691 32.3633 60.1131 29.9052C60.1572 27.4471 61.8058 25.4832 64.2506 25.527C66.6954 25.5708 68.2727 27.5924 68.2286 30.0506Z" fill="#F48C85"/>
<path fill-rule="evenodd" clip-rule="evenodd" d="M63.1189 28.1841C63.2809 28.0587 63.5139 28.0883 63.6393 28.2503L65.5665 30.7391C65.6919 30.9011 65.6623 31.1341 65.5003 31.2595C65.3383 31.3849 65.1053 31.3553 64.9799 31.1933L63.0527 28.7045C62.9273 28.5426 62.9569 28.3096 63.1189 28.1841Z" fill="#C6443A"/>
<rect x="60.295" y="19.5194" width="4.45155" height="2.9677" rx="0.741926" transform="rotate(1.02629 60.295 19.5194)" fill="#F9A76F"/>
<path d="M77.6837 1.82916C77.699 1.75883 77.6823 1.72508 77.6837 1.65038C77.6947 1.03585 77.2054 0.528745 76.5909 0.517736C75.9763 0.506727 75.4692 0.99598 75.4582 1.61051C75.4569 1.68521 75.4629 1.75833 75.4757 1.82916L77.6837 1.82916Z" fill="#993E00"/>
<path d="M84.6308 32.5646L85.6571 36.6643L83.8026 37.373" stroke="#C6443A" stroke-width="0.741926" stroke-linecap="round" stroke-linejoin="round"/>
<path d="M86.2541 40.6204L80.9637 40.1828C80.7382 40.1641 80.548 40.3498 80.5782 40.574C80.7525 41.8647 81.4119 43.607 83.3427 43.4603C85.2316 43.3169 86.2292 42.0232 86.5567 41.0437C86.6255 40.838 86.4703 40.6383 86.2541 40.6204Z" fill="#EDEDED"/>
<path fill-rule="evenodd" clip-rule="evenodd" d="M86.5635 41.0261L80.5895 40.6414C80.5862 40.6185 80.583 40.5958 80.5799 40.5732C80.5496 40.349 80.7399 40.1633 80.9654 40.182L86.2558 40.6196C86.4661 40.637 86.6187 40.8264 86.5635 41.0261Z" fill="#CC584F"/>
<path d="M121.768 132.265L126.098 129.896C129.538 128.014 131.153 123.95 129.943 120.219L118.675 85.4738L114.594 88.8124L104.919 103.863C104.701 104.202 104.63 104.614 104.723 105.006L109.908 126.98C111.146 132.226 117.039 134.853 121.768 132.265Z" fill="#1A3A2D"/>
<path d="M99.1981 91.2228C99.0842 90.6325 99.3377 90.0318 99.8401 89.7016L104.811 86.4345C106.967 85.0169 109.706 84.8219 112.042 85.9197L114.804 87.2181C116.08 87.8176 116.906 89.0883 116.935 90.4975L117.21 103.559C117.254 105.676 115.521 107.4 113.405 107.346L106.884 107.178C105.84 107.151 104.955 106.402 104.756 105.377L103.415 98.4765L102.334 98.8075C101.491 99.0658 100.61 98.5359 100.443 97.67L99.1981 91.2228Z" fill="#F48C85"/>
<path d="M117.931 227.55L122.753 221.985" stroke="#6D3A09" stroke-width="1.11289" stroke-linecap="round"/>
<path d="M117.931 227.551L122.753 227.922" stroke="#6D3A09" stroke-width="1.11289" stroke-linecap="round"/>
<path d="M40.7726 309.904H68.5948" stroke="#6D3A09" stroke-width="1.11289" stroke-linecap="round"/>
<path d="M149.469 294.324H120.534" stroke="#6D3A09" stroke-width="1.11289" stroke-linecap="round"/>
<path d="M149.469 283.937H120.534" stroke="#6D3A09" stroke-width="1.11289" stroke-linecap="round"/>
</svg>
