<svg width="84" height="78" viewBox="0 0 84 78" fill="none" xmlns="http://www.w3.org/2000/svg">
<path d="M37.0669 24.7561C38.7961 17.3814 35.4179 8.48923 39.5089 2.43042C40.9281 0.327994 43.8838 -0.967108 45.5379 0.901343C47.097 2.66296 46.2853 5.62734 46.6148 8.09476C47.103 11.7538 50.1981 14.3508 50.9591 17.9494C51.5448 20.7204 50.6564 23.68 51.2042 26.4607C51.5086 28.0052 52.2367 29.3907 52.8323 30.8217C54.2068 34.1235 54.9042 37.8643 54.3696 41.4648C53.835 45.0654 51.9682 48.4867 49.1361 50.2236C43.8548 53.4631 35.9299 49.8456 33.2577 43.8535C30.2935 37.2058 35.6294 30.886 37.0669 24.7561Z" fill="#6C9424"/>
<path d="M46.8126 15.751C45.5076 19.1341 43.7337 22.1531 42.1721 25.349C41.6524 22.2198 41.3467 19.0654 41.4111 15.8303C41.5125 10.7514 42.5664 5.97659 43.8599 1.14714C43.9089 0.963925 43.6706 0.898656 43.6118 1.06931C40.8701 9.00188 40.4348 17.7046 41.8532 26.0142C41.7854 26.1568 41.715 26.2975 41.6485 26.4411C41.6144 26.5146 41.6925 26.576 41.7457 26.5262C41.8033 26.4725 41.8553 26.4087 41.9112 26.3516C42.0459 27.1135 42.1908 27.8735 42.3562 28.6271C42.91 31.1473 43.4319 33.5688 43.483 36.1851C43.5303 38.6099 43.2882 41.029 42.9646 43.4215C42.355 47.9309 41.5918 52.3466 41.4495 56.9183C41.4379 57.2867 41.9606 57.2882 41.9546 56.9183C41.8174 47.9909 45.2164 39.3457 43.1825 30.4299C42.8418 28.937 42.5383 27.4447 42.2765 25.948C43.2605 24.7423 43.9682 23.045 44.6464 21.6866C45.5745 19.8283 46.5078 17.926 47.1873 15.9294C47.27 15.6867 46.9055 15.5093 46.8126 15.751Z" fill="#221656"/>
<path d="M67.1294 66.7762C65.0059 55.0907 59.4011 44.2552 51.4433 36.4502C49.8971 34.9337 48.2365 33.51 46.3304 32.6717C42.9868 31.2016 39.1465 31.6923 35.86 33.3195C32.573 34.9468 29.7734 37.623 27.2593 40.5236C20.5674 48.2449 15.4941 58.102 14.3026 68.8438C24.1979 70.2839 34.0997 68.0988 44.0756 68.224C51.7656 68.3202 59.7366 69.1798 67.1294 66.7762Z" fill="#F7D772"/>
<path d="M67.1294 66.7762C65.0059 55.0907 59.401 44.2552 51.4433 36.4502C49.9448 34.9806 48.3371 33.6028 46.5044 32.7559C45.7783 32.898 45.0723 33.1392 44.4026 33.5168C42.1755 34.7727 40.7349 37.2808 39.5319 39.7491C35.177 48.6839 32.5154 58.6667 31.7289 68.8341C35.8348 68.5155 39.9488 68.1718 44.0756 68.224C51.7656 68.3202 59.7366 69.1798 67.1294 66.7762Z" fill="#D6562B"/>
<path d="M49.163 67.4076C48.33 65.9394 48.4208 63.9937 48.3504 62.3157C48.2647 60.2751 47.9156 58.2583 47.7459 56.2245C47.3353 51.2969 47.2219 46.321 47.1034 41.375C47.0361 38.5489 47.0446 35.7203 46.9674 32.8952C46.9653 32.8198 46.8664 32.8198 46.8643 32.8952C46.7291 37.9881 46.9431 43.1178 47.1324 48.2058C47.2271 50.7535 47.32 53.3041 47.5204 55.844C47.6879 57.9735 48.0575 60.0909 48.1483 62.2248C48.2183 63.8631 48.0597 66.1381 48.9899 67.5232C49.0658 67.6353 49.235 67.5343 49.163 67.4076Z" fill="#221656"/>
<path d="M66.2883 63.2229C67.375 64.1728 68.5759 65.0875 69.9423 65.2257C70.4262 65.2746 70.9271 65.2194 71.3675 64.986C72.779 64.2376 73.0216 62.1023 72.9632 60.3363C72.9287 59.2921 72.791 58.1068 72.0381 57.5039C71.2212 56.8499 70.0962 57.2018 69.1135 56.9925C67.9774 56.7503 67.0842 55.7621 66.3676 54.7334C65.6509 53.7047 65.0153 52.5667 64.0765 51.8009C63.5104 51.3393 62.7724 51.027 62.1163 51.2948C61.2935 51.6303 60.929 52.7078 60.7542 53.6795C60.388 55.7143 60.2822 57.1414 61.6328 58.5631C63.1501 60.1604 64.6457 61.7866 66.2883 63.2229Z" fill="#549285"/>
<path d="M52.252 45.0325C51.0592 45.5686 50.1294 47.147 50.6282 48.4876C49.5978 48.3967 48.4748 48.3324 47.6243 48.9986C46.8599 49.597 46.4865 50.6852 46.4426 51.7372C46.3986 52.7891 46.6387 53.827 46.8765 54.8451C47.7633 58.6386 48.6496 62.4321 49.5364 66.226C49.7789 67.2644 50.0262 68.3154 50.4905 69.2513C51.364 71.0124 53.0233 72.2486 54.798 72.4308C56.5728 72.6131 58.4111 71.7245 59.5055 70.1297C60.5108 68.6644 60.8599 66.752 60.9567 64.8985C61.0539 63.0455 60.9298 61.1785 61.1247 59.3352C61.2956 57.7181 61.7138 56.1349 62.3542 54.6774C62.8918 53.4538 63.6093 52.1442 63.301 50.8225C62.9561 49.3432 61.4768 48.607 60.1382 48.4194C60.6783 48.4948 59.6304 46.0709 59.4855 45.907C58.8937 45.2384 57.9417 44.8357 57.1266 44.6883C55.7342 44.4369 53.5353 44.4563 52.252 45.0325Z" fill="#549285"/>
<path d="M58.8106 42.1587C58.7706 42.0296 58.7113 41.932 58.6423 41.8575C58.4871 40.7239 58.0629 39.6468 57.3837 38.8346C57.2533 38.679 57.1113 38.5296 56.9404 38.4489C56.749 38.359 56.5375 38.3619 56.3324 38.3667C55.7633 38.3793 55.1716 38.3976 54.6642 38.7075C53.8235 39.2204 53.4155 40.4391 53.4364 41.5723C53.4573 42.705 53.8269 43.7811 54.191 44.8263C54.6374 45.2338 54.9558 45.607 55.3067 46.133C55.3864 47.4435 55.5817 48.6255 55.6614 49.9361C55.6814 50.2677 55.7066 50.6163 55.8618 50.8918C56.1227 51.3545 56.7008 51.4483 57.1118 51.1867C57.5227 50.9257 57.7743 50.391 57.8702 49.8438C57.9516 49.3773 57.9341 48.8972 57.903 48.421C58.5344 48.3132 58.8273 47.3705 58.9893 46.6386C59.3222 45.1289 59.2643 43.6278 58.8106 42.1587Z" fill="#ED6A56"/>
<path d="M59.5141 45.059C59.4629 44.6007 59.3704 44.1492 59.2787 43.6991C59.1218 42.9319 58.9654 42.1647 58.8085 41.3975C58.7215 40.9726 58.6337 40.5442 58.476 40.1459C58.2752 39.6407 57.9682 39.2013 57.6642 38.7677C57.8987 38.4326 58.1136 38.0647 58.1971 37.6475C58.2807 37.2303 58.2121 36.7532 57.9435 36.4525C57.5466 36.0082 56.8939 36.0924 56.3597 36.2741C55.3992 36.6009 54.4962 37.1448 53.7203 37.8651C53.3857 38.1755 53.0655 38.5337 52.9095 38.991C52.6592 39.7248 52.8788 40.5452 53.0988 41.2911C53.7272 43.4211 54.3922 45.5627 55.2717 47.5573C55.9624 48.5421 57.2059 48.9762 58.2654 48.602C58.5979 48.4846 58.9185 48.2878 59.1359 47.9789C59.3802 47.6318 59.4723 47.1788 59.5187 46.7379C59.578 46.181 59.5763 45.6159 59.5141 45.059ZM58.2006 43.2326C57.7465 43.0354 57.2158 43.1601 56.8146 43.4714C56.4134 43.7827 56.1303 44.2594 55.9389 44.766C55.5343 44.197 55.4985 43.4032 55.2274 42.7405C54.9899 42.1608 54.5589 41.6237 54.6126 40.988C54.6305 40.7777 54.7022 40.5786 54.7768 40.3847C54.9059 40.0492 55.0645 39.6958 55.3523 39.529C55.7518 39.2975 56.7557 39.2694 57.2175 39.2462C57.8399 39.2153 58.0867 39.663 58.2624 40.3108C58.5433 41.3467 58.826 42.3909 58.9266 43.469C58.6755 43.5275 58.4393 43.3365 58.2006 43.2326Z" fill="#221656"/>
<path d="M54.7128 43.733C54.6868 43.5077 54.5444 43.2994 54.3683 43.1766C54.136 43.0146 53.861 42.96 53.5941 42.9324C53.4134 42.9141 53.2275 43.0949 53.184 43.2863C53.0007 44.0965 53.789 44.5911 54.3619 44.7748C54.6169 44.8565 54.8957 44.6747 54.9656 44.3861C55.0215 44.1555 54.9174 43.8379 54.7128 43.733Z" fill="#ED6A56"/>
<path d="M47.1277 53.2212C44.6695 53.3715 42.5865 55.8573 41.9696 58.7651C41.3527 61.6729 42.0216 64.8491 43.3283 67.4286C43.9042 68.5657 44.6179 69.6311 45.5426 70.3447C47.612 71.9419 50.4214 71.4421 52.3927 69.738C53.676 68.6285 54.83 66.9964 56.4083 66.8973C57.677 66.8176 58.9338 67.7873 60.1723 67.4572C61.0339 67.2275 61.716 66.381 62.0796 65.4006C62.4433 64.4203 62.5294 63.3171 62.5388 62.2347C62.552 60.7312 62.4279 59.2234 62.1696 57.7489C61.8665 56.0202 61.1622 54.0826 59.7557 53.6775C57.5427 53.0399 55.9866 56.0743 53.7152 55.4614C51.4898 54.8614 49.472 53.0781 47.1277 53.2212Z" fill="#F7D772"/>
<path d="M56.2608 63.4809C57.3069 63.4809 58.1549 62.5193 58.1549 61.3331C58.1549 60.1468 57.3069 59.1852 56.2608 59.1852C55.2147 59.1852 54.3666 60.1468 54.3666 61.3331C54.3666 62.5193 55.2147 63.4809 56.2608 63.4809Z" fill="#221656"/>
<path d="M51.483 64.846C51.3624 64.0885 51.1501 63.3624 50.954 62.629C50.9088 62.4318 50.8632 62.2345 50.8133 62.0383C50.7992 61.9836 50.7856 61.9261 50.7719 61.8691C50.6598 61.1836 50.7105 60.4241 50.3375 59.8778C50.2134 59.6961 49.8779 59.6458 49.7151 59.7869C48.593 60.7552 49.6912 63.3145 50.1005 64.8011C50.135 64.9495 50.1691 65.0979 50.2075 65.2448C50.453 66.1837 51.6322 65.7848 51.483 64.846Z" fill="#824737"/>
<path d="M82.4967 51.5785C81.737 51.446 81.043 52.0406 80.3024 52.2751C79.793 52.4365 79.2558 52.4259 78.7289 52.4786C78.202 52.5313 77.6546 52.6613 77.2508 53.0491C76.9452 53.3425 76.7589 53.7945 76.6834 54.2944L60.4499 58.3242L60.9056 61.803L77.4273 56.9382C77.5126 57.0127 77.6025 57.0799 77.701 57.1287C79.1177 57.8345 80.7855 55.8747 82.194 56.6013C82.2767 56.6443 82.362 56.697 82.4528 56.6883C82.5752 56.6767 82.666 56.5597 82.7419 56.4504C83.2812 55.6731 83.7825 54.7952 83.8405 53.8085C83.8981 52.8213 83.3588 51.7288 82.4967 51.5785Z" fill="#824737"/>
<path d="M44.5425 49.4137C43.6391 49.7903 42.7217 50.1877 41.9718 50.8717C41.2219 51.5558 40.6531 52.5845 40.6945 53.6751C40.7252 54.4839 41.0799 55.2303 41.4849 55.897C42.8368 58.1231 44.8618 59.8132 47.1379 60.6152C47.7292 60.8236 48.3572 60.9744 48.966 60.8448C49.5748 60.7153 50.1606 60.2497 50.3255 59.5725C50.5425 58.6829 50.0028 57.7973 49.4516 57.1186C48.9298 56.4756 48.3675 55.8747 47.771 55.3217C48.7141 55.1041 49.689 54.8711 50.4667 54.2282C52.3148 52.7 51.2826 50.6305 49.9644 49.2092C48.4975 47.6284 46.2508 48.7016 44.5425 49.4137Z" fill="#549285"/>
<path d="M52.2871 59.7563C51.8629 59.3236 51.252 59.079 50.621 59.0447C50.4198 59.0336 50.2603 59.1307 50.1474 59.2782C50.0719 59.3057 50.0062 59.3695 49.9568 59.4865C49.8502 59.7384 49.8881 60.026 49.9883 60.305C49.9564 60.4418 49.9551 60.596 49.9956 60.7638C50.3251 62.129 52.6456 63.4052 53.1052 61.4734C53.268 60.7884 52.8481 60.188 52.2871 59.7563Z" fill="#ED6A56"/>
<path d="M46.5368 64.926C45.0817 64.6012 43.2643 64.4996 42.4432 65.9001C41.5032 67.5032 42.702 69.6235 44.0291 70.8234C47.1929 73.6838 51.2519 74.8663 55.1779 75.9762C56.4773 76.3436 57.8032 76.7139 59.1388 76.6052C60.4067 76.5017 61.6166 75.9714 62.7698 75.3637C66.0171 73.6538 69.0568 71.2082 71.0187 67.8121C71.6821 66.6639 72.2295 65.3422 72.1366 63.9737C72.044 62.6051 71.1189 61.2365 69.9095 61.1867C69.0001 61.149 68.1978 61.8171 67.496 62.4736C65.804 64.0563 64.1831 65.7827 62.2399 66.9366C57.1863 69.9387 51.6053 66.0582 46.5368 64.926Z" fill="#221656"/>
<path d="M72.5754 55.1357C72.2185 55.1081 71.9354 55.4325 71.8259 55.783C71.5513 56.6604 71.2197 59.2651 72.4172 59.5136C72.8077 59.5948 73.237 59.3758 73.3589 58.949C74.163 57.7331 74.2461 55.2643 72.5754 55.1357Z" fill="#ED6A56"/>
<path d="M61.1776 71.4485C60.7551 71.012 60.1101 70.9782 59.6893 71.4485C59.2318 71.9595 58.9193 72.5179 58.696 73.1265C58.0006 72.515 57.2652 71.9493 56.5469 71.4306C55.6081 70.7524 53.8418 69.4201 52.7935 70.575C50.3908 73.2213 57.0883 75.4881 58.1793 76.0285C58.3118 76.101 58.4419 76.1363 58.5676 76.147C58.768 76.3568 59.0481 76.4549 59.3278 76.4467C59.5316 77.1728 60.1514 77.5349 60.8323 77.1713C62.3402 76.3669 62.286 72.5938 61.1776 71.4485Z" fill="#EE6E6D"/>
<path d="M66.7632 68.9466C66.6907 68.5449 66.2908 68.2147 65.9344 68.2312C65.0238 68.2723 64.3634 68.7243 63.8194 69.3556C62.5848 70.3578 61.499 71.7491 60.8595 73.2685C60.1893 74.8614 61.8443 76.4557 63.0521 75.1867C63.9077 74.2881 64.9624 73.6296 65.7396 72.6362C66.6234 71.505 67.0335 70.4472 66.7632 68.9466Z" fill="#EE6E6D"/>
<path d="M11.4334 14.0405C11.9587 20.3202 6.08265 25.2648 5.81194 31.5653C5.65889 35.1252 7.34713 38.5518 7.14249 42.1084C6.77756 48.4413 0.699054 52.8047 0.0561604 59.1091C-0.347993 63.0752 1.50139 66.8386 3.28598 70.2802H28.5059C28.9638 66.8459 29.6549 62.9693 28.5332 59.7376C27.2449 56.0253 23.9669 52.9928 24.2389 49.0156C24.4205 46.3587 26.2306 43.928 25.8056 41.3073C25.3554 38.5305 22.6913 37.0701 21.1958 34.813C19.7177 32.5829 19.4368 29.6113 19.5749 26.8262C19.713 24.0407 20.2148 21.2707 20.0869 18.4847C19.959 15.6987 19.0676 12.7648 17.0396 11.1854C15.012 9.60459 12.4967 11.5243 11.4334 14.0405Z" fill="#6C9424"/>
<path d="M24.6788 41.2585C23.3116 43.8762 21.7696 46.4273 20.0732 48.785C19.3033 49.8553 18.4903 50.8888 17.607 51.8407C16.7697 52.7428 15.7883 53.4157 14.9314 54.2719C14.1764 49.4888 12.37 44.9925 11.751 40.177C14.8329 39.0821 17.7182 35.7629 18.6839 32.2952C18.7448 32.0757 18.4694 31.9597 18.3658 32.1429C17.4833 33.7088 16.8272 35.3017 15.6915 36.6881C14.5498 38.0823 13.2342 39.0613 11.6917 39.7342C11.4368 37.4476 11.5255 35.2108 12.0571 33.0247C12.2515 32.9701 12.399 32.6815 12.2144 32.4688C12.2102 32.4639 12.2063 32.4591 12.2021 32.4543C12.2848 32.1599 12.3717 31.8659 12.4715 31.5735C13.0577 29.8515 13.8272 28.218 14.4769 26.527C15.35 26.1508 16.2022 25.6017 16.9355 24.9577C17.41 24.541 18.3309 23.7526 18.2192 22.9829C18.2072 22.8993 18.1092 22.8659 18.0512 22.9056C17.7613 23.1023 17.6539 23.4625 17.4356 23.7525C17.1252 24.1654 16.7471 24.5091 16.3587 24.8229C15.8203 25.2575 15.2366 25.608 14.6734 25.9952C14.8116 25.6157 14.945 25.2343 15.0652 24.8461C15.674 22.8747 15.8117 20.9371 15.4549 18.8878C15.0264 16.4243 14.1759 14.1647 14.3025 11.6021C14.3141 11.3691 13.996 11.3705 13.9832 11.6021C13.8604 13.8442 14.456 15.8751 14.916 18.0259C15.5478 20.9786 15.2072 23.4838 14.1448 26.2446C13.3979 28.1851 12.4804 30.0516 11.8576 32.0506C10.4729 30.4219 9.10823 28.6042 8.5165 26.424C8.44999 26.1779 8.123 26.2794 8.17629 26.5303C8.69854 28.9823 10.1497 30.9721 11.6538 32.7632C11.6291 32.8555 11.6001 32.9464 11.5771 33.0392C11.0147 35.2823 11.0028 37.639 11.2718 39.9382C11.2718 39.9392 11.2722 39.9397 11.2722 39.9406C11.1874 40.0426 11.2177 40.2157 11.3217 40.2723C11.9556 45.18 13.8285 49.7523 14.549 54.6407C14.8917 56.9665 14.8934 59.3044 14.9092 61.6384C11.6061 58.7378 7.83737 56.6286 4.78192 53.3509C4.65402 53.2136 4.47496 53.4206 4.58964 53.569C7.44046 57.2488 11.5489 59.2831 14.8862 62.3036C14.8951 62.3118 14.9049 62.3132 14.9143 62.32C14.9386 64.9474 15.0243 67.5676 15.6791 70.1573C15.79 70.5953 16.4154 70.3749 16.2675 69.9736C15.3701 67.5386 15.2486 64.9116 15.249 62.261C15.321 62.1711 15.3389 62.044 15.2498 61.941C15.2579 59.5287 15.3445 57.1033 15.0196 54.7901C15.0183 54.7804 15.0162 54.7708 15.0145 54.7606C15.0482 54.7684 15.0836 54.7703 15.1207 54.7563C17.2629 53.9369 19.091 51.1204 20.4446 49.2065C22.1635 46.7758 23.6501 44.1813 24.9623 41.4465C25.0642 41.2357 24.7871 41.0511 24.6788 41.2585Z" fill="#221656"/>
</svg>
