<svg width="289" height="294" viewBox="0 0 289 294" fill="none" xmlns="http://www.w3.org/2000/svg">
<path d="M248.355 241.501L218.209 251.929L207.889 226.511C211.419 207.285 219.983 207.832 225.542 204.352C231.788 200.442 236.677 187.407 241.293 187.733C245.717 188.045 245.154 189.255 245.099 206.835C245.094 208.412 245.459 209.973 246 211.454C249.682 221.541 249.449 235.745 248.355 241.501Z" fill="#242E0E"/>
<path d="M217.119 250.626C218.748 237.591 236.673 231.074 249.437 229.77L248.351 243.782L222.822 267.896C222.732 269.2 221.464 267.571 217.119 250.626Z" fill="#0F1403"/>
<path d="M237.218 200.442C225.703 214.78 218.841 241.392 216.849 252.906" stroke="#0F1403" stroke-width="0.412344" stroke-linecap="round"/>
<path d="M254.873 290.707H222.283L215.765 253.232C221.468 239.22 229.616 238.569 243.195 233.355C256.774 228.141 256.534 221.783 266.008 220.646C273.877 219.702 274.146 225.749 267.793 250.531C267.337 252.312 267.259 254.175 267.415 256.007C269.015 274.724 258.154 284.594 254.873 290.707Z" fill="#242E0E"/>
<path d="M255.956 240.522C244.277 263.984 229.612 273.977 226.081 284.514" stroke="#0F1403" stroke-width="0.412344" stroke-linecap="round"/>
<path d="M229.612 290.708H66.3913C66.3913 279.846 65.0334 257.47 80.5136 238.895C92.5958 224.398 97.7138 195.99 99.2528 184.15H201.639C202.002 193.926 204.301 216.411 210.602 228.142C220.161 243.001 227.259 276.044 229.612 290.708Z" fill="#5D3315"/>
<path d="M123.695 183.823C131.3 211.522 94.0927 233.355 97.6233 291.033" stroke="#261305" stroke-width="0.412344"/>
<path d="M150.312 290.707C145.152 266.593 162.618 264.312 160.089 246.715C156.016 218.365 173.397 223.253 181.544 246.715C188.647 267.169 206.802 263.986 216.579 290.707" stroke="#261305" stroke-width="0.412344"/>
<path d="M235.044 271.481L251.611 266.593" stroke="black" stroke-width="0.274896"/>
<path d="M223.366 228.141L235.044 220.646" stroke="black" stroke-width="0.274896"/>
<path d="M222.552 209.567C222.334 215.042 224.272 220.973 225.267 223.254" stroke="black" stroke-width="0.274896"/>
<path d="M90.5309 265.443L101.479 252.836V246.316H107.919V254.575L93.0323 274.301C92.2282 275.366 90.5309 274.797 90.5309 273.463V265.443Z" fill="#242E0E"/>
<path d="M89.8357 265.443L100.784 252.836V246.316H107.224V254.575L92.3371 274.301C91.533 275.366 89.8357 274.797 89.8357 273.463V265.443Z" fill="#0F1403"/>
<path d="M102.355 193.454H85.6619V201.105H96.7905C98.7112 201.105 100.268 202.662 100.268 204.583V246.315C100.268 246.699 100.58 247.011 100.964 247.011H108.615C108.999 247.011 109.31 246.699 109.31 246.315V199.714C109.31 199.603 109.284 199.499 109.238 199.406C108.752 196.04 105.855 193.454 102.355 193.454Z" fill="#242E0E"/>
<path d="M100.269 201.104C100.269 200.72 100.58 200.409 100.964 200.409H106.529C106.913 200.409 107.224 200.72 107.224 201.104V246.314C107.224 246.698 106.913 247.01 106.529 247.01H100.964C100.58 247.01 100.269 246.698 100.269 246.314V201.104Z" fill="#0F1403"/>
<path d="M81.4828 162.154V189.28H13.3198V189.275C5.98992 189.091 0.104576 183.091 0.104576 175.717C0.104576 168.342 5.98992 162.342 13.3198 162.158V162.154H81.4828Z" fill="#C14721"/>
<path d="M0.877602 180.238H78.7019V189.28H13.3211V189.276C7.56683 189.131 2.70288 185.402 0.877602 180.238Z" fill="#A23D1E"/>
<path d="M66.1805 162.154H76.8203C74.0282 159.564 70.2892 157.981 66.1805 157.981C57.5375 157.981 50.5308 164.988 50.5308 173.631V189.28H54.7041V173.631C54.7041 167.292 59.8423 162.154 66.1805 162.154Z" fill="#5D3315"/>
<path d="M31.402 162.154H42.0419C39.2497 159.564 35.5108 157.981 31.402 157.981C22.759 157.981 15.7524 164.988 15.7524 173.631V189.28H19.9256V173.631C19.9256 167.292 25.0638 162.154 31.402 162.154Z" fill="#5D3315"/>
<circle cx="13.563" cy="13.563" r="13.563" transform="matrix(-1 0 0 1 94.0017 162.154)" fill="#B03815"/>
<circle cx="10.0853" cy="10.0853" r="9.38979" transform="matrix(-1 0 0 1 90.5256 165.632)" stroke="#C74522" stroke-width="1.39108"/>
<circle cx="4.52101" cy="4.52101" r="3.82547" transform="matrix(-1 0 0 1 84.9613 171.195)" stroke="#C74522" stroke-width="1.39108"/>
<path d="M87.0519 192.062C87.0519 190.525 85.8063 189.28 84.2697 189.28H13.3247V288.046C13.3247 291.119 15.8159 293.611 18.889 293.611H84.2697C85.8063 293.611 87.0519 292.365 87.0519 290.828V192.062Z" fill="#35401C"/>
<path d="M7.75447 282.483C7.75447 285.172 9.9343 287.352 12.6233 287.352H62.7021C65.0069 287.352 66.8754 285.483 66.8754 283.179V245.619C66.8754 241.778 63.7613 238.664 59.92 238.664H14.7099C10.8685 238.664 7.75447 241.778 7.75447 245.619V282.483Z" fill="#151D05"/>
<path d="M7.75447 254.662C7.75447 257.351 9.9343 259.531 12.6233 259.531H52.9646C55.2694 259.531 57.1378 257.662 57.1378 255.357V245.439C57.1378 243.156 58.2576 241.019 60.1341 239.72L61.6588 238.664H14.7099C10.8685 238.664 7.75447 241.778 7.75447 245.62V254.662Z" fill="#080B02"/>
<path d="M57.14 281.266C57.14 284.627 59.8648 287.352 63.226 287.352C65.2427 287.352 66.8776 285.717 66.8776 283.7V243.533C66.8776 240.844 64.6978 238.664 62.0088 238.664C59.3199 238.664 57.14 240.844 57.14 243.533V281.266Z" fill="#0F1403"/>
<path d="M7.06166 196.235C7.06166 192.394 10.1757 189.28 14.0171 189.28H66.8781V221.97H9.84383C8.30728 221.97 7.06166 220.724 7.06166 219.188V196.235Z" fill="#151C05"/>
<path d="M59.9234 196.235C59.9234 192.394 63.0374 189.28 66.8788 189.28V221.97H62.7055C61.169 221.97 59.9234 220.724 59.9234 219.188V196.235Z" fill="#151C05"/>
<path d="M57.14 196.235C57.14 192.394 60.2541 189.28 64.0954 189.28H66.8776V221.97H59.9222C58.3857 221.97 57.14 220.724 57.14 219.188V196.235Z" fill="#0F1403"/>
<path d="M66.8781 189.28H84.2666C85.8031 189.28 87.0487 190.525 87.0487 192.062V290.828C87.0487 292.365 85.8031 293.611 84.2666 293.611H72.4424C69.3693 293.611 66.8781 291.119 66.8781 288.046V189.28Z" fill="#242F0E"/>
<path d="M70.2205 293.148C68.2532 292.291 66.8781 290.329 66.8781 288.045V276.818L74.7822 268.914L79.7004 273.832L84.2666 276.569V279.003L70.2205 293.148Z" fill="#182103"/>
<path d="M78.7019 189.28H76.6152V209.102C76.6152 209.679 77.0823 210.146 77.6585 210.146C78.2347 210.146 78.7019 209.679 78.7019 209.102V189.28Z" fill="#151C05"/>
<rect width="4.17324" height="2.78216" transform="matrix(-1 0 0 1 79.3995 251.184)" fill="#902808"/>
<path d="M84.2661 256.747C84.2661 254.442 82.3977 252.573 80.0929 252.573H74.5285C72.2237 252.573 70.3553 254.442 70.3553 256.747V272.744H84.2661V256.747Z" fill="#B33913"/>
<path d="M84.2661 272.744H72.4419V256.747C72.4419 254.442 74.5595 252.573 77.1716 252.573H79.5364C82.5272 252.573 84.2661 254.442 84.2661 256.747V272.744Z" fill="#C14721"/>
<rect width="5.56432" height="4.17324" rx="0.69554" transform="matrix(-1 0 0 1 80.0947 247.706)" fill="#B03815"/>
<path d="M84.9613 260.225H69.6594V277.613C69.6594 279.534 71.2165 281.091 73.1371 281.091H77.3104H81.4836C83.4043 281.091 84.9613 279.534 84.9613 277.613V260.225Z" fill="#151C05"/>
<path d="M93.8781 261.694L90.7566 263.877V274.967L98.7707 268.517C98.8616 268.33 98.9098 268.123 98.9098 267.911V263.085C98.9098 262.317 98.287 261.694 97.5187 261.694H93.8781Z" fill="#0F1503"/>
<path d="M85.6566 264.477C85.6566 263.709 86.2794 263.086 87.0476 263.086H96.1283C96.8966 263.086 97.5194 263.709 97.5194 264.477V269.303C97.5194 269.636 97.3999 269.958 97.1826 270.21L92.1395 276.069C91.8752 276.376 91.4903 276.552 91.0852 276.552H87.0476C86.2794 276.552 85.6566 275.929 85.6566 275.161V264.477Z" fill="#151C05"/>
<path d="M79.2243 248.747C79.2243 248.651 79.3022 248.573 79.3982 248.573C79.4942 248.573 79.5721 248.651 79.5721 248.747V250.834C79.5721 250.93 79.4942 251.008 79.3982 251.008C79.3022 251.008 79.2243 250.93 79.2243 250.834V248.747Z" fill="#8F2808"/>
<path d="M77.8332 248.747C77.8332 248.651 77.9111 248.573 78.0071 248.573C78.1032 248.573 78.181 248.651 78.181 248.747V250.834C78.181 250.93 78.1032 251.008 78.0071 251.008C77.9111 251.008 77.8332 250.93 77.8332 250.834V248.747Z" fill="#8F2808"/>
<path d="M76.6161 248.573C76.52 248.573 76.4422 248.651 76.4422 248.747V250.834C76.4422 250.93 76.52 251.008 76.6161 251.008C76.7121 251.008 76.7899 250.93 76.7899 250.834V248.747C76.7899 248.651 76.7121 248.573 76.6161 248.573Z" fill="#8F2808"/>
<path d="M75.0511 248.747C75.0511 248.651 75.1289 248.573 75.225 248.573C75.321 248.573 75.3989 248.651 75.3989 248.747V250.834C75.3989 250.93 75.321 251.008 75.225 251.008C75.1289 251.008 75.0511 250.93 75.0511 250.834V248.747Z" fill="#8F2808"/>
<rect x="47.4019" y="210.841" width="4.86878" height="27.1261" rx="0.69554" fill="#5D3315"/>
<rect x="18.883" y="210.841" width="4.86878" height="27.1261" rx="0.69554" fill="#5D3315"/>
<rect x="16.1045" y="226.84" width="10.4331" height="3.4777" rx="0.69554" fill="#242E0E"/>
<rect x="44.6186" y="226.84" width="10.4331" height="3.4777" rx="0.69554" fill="#242E0E"/>
<circle cx="50.1841" cy="278.31" r="2.43439" stroke="#35401C" stroke-width="0.69554"/>
<circle cx="15.4105" cy="278.31" r="2.43439" stroke="#35401C" stroke-width="0.69554"/>
<path fill-rule="evenodd" clip-rule="evenodd" d="M36.8991 196.725C36.6275 196.454 36.1871 196.454 35.9155 196.725L30.5054 202.135C30.2338 202.407 30.2338 202.847 30.5054 203.119L35.9155 208.529C36.1871 208.801 36.6275 208.801 36.8991 208.529L42.3091 203.119C42.5808 202.847 42.5808 202.407 42.3091 202.135L36.8991 196.725ZM37.252 199.305C37.43 199.305 37.608 199.373 37.7438 199.509L40.2379 202.003C40.5095 202.275 40.5095 202.715 40.2379 202.987L37.7438 205.481C37.608 205.617 37.43 205.685 37.252 205.685V199.305ZM35.5728 199.305C35.3948 199.305 35.2168 199.373 35.081 199.509L32.5869 202.003C32.3153 202.275 32.3153 202.715 32.5869 202.987L35.081 205.481C35.2168 205.617 35.3948 205.685 35.5728 205.685V199.305Z" fill="#242E0E"/>
<path d="M135.922 37.9347C128.626 37.4562 129.427 31.5575 129.577 23.2124L139.356 20.9528C139.884 23.8608 139.936 31.3284 135.922 37.9347Z" fill="#0D0A07"/>
<path d="M141.483 13.6361C137.033 13.3973 133.322 16.9963 133.424 21.4511L133.606 29.4158C133.619 29.9638 133.724 30.5058 133.919 31.0185C134.114 31.5336 134.277 31.4461 134.289 31.995L134.676 49.2193L133.772 60.8552L152.827 60.8487L153.063 47.6356L154.204 47.656C158.045 47.7248 161.215 44.6671 161.283 40.8263L161.607 22.748C162.052 18.4001 158.77 14.5638 154.406 14.3295L141.483 13.6361Z" fill="#F48C85"/>
<path d="M143.757 47.4678L153.841 47.6484L153.766 51.821L143.757 47.4678Z" fill="#C6443A"/>
<path fill-rule="evenodd" clip-rule="evenodd" d="M150.873 24.2815C149.387 23.4115 147.51 23.722 146.38 24.9795C146.252 25.1224 146.035 25.1565 145.881 25.0423C145.726 24.9282 145.693 24.7092 145.819 24.5644C147.162 23.0219 149.432 22.6316 151.225 23.6812L151.479 23.8301C151.645 23.9271 151.701 24.1401 151.604 24.3059C151.507 24.4716 151.294 24.5274 151.128 24.4303L150.873 24.2815Z" fill="#0D0A07"/>
<path fill-rule="evenodd" clip-rule="evenodd" d="M155.504 24.8979C156.822 23.789 158.724 23.7775 160.05 24.8258C160.201 24.9449 160.42 24.9418 160.553 24.8032C160.686 24.6646 160.682 24.4431 160.533 24.3217C158.948 23.0287 156.646 23.0279 155.056 24.3657L154.83 24.5554C154.684 24.6791 154.665 24.8985 154.788 25.0454C154.912 25.1924 155.131 25.2113 155.278 25.0876L155.504 24.8979Z" fill="#0D0A07"/>
<path d="M148.583 115.918H160.446V122.174L154.838 128.688H148.583V115.918Z" stroke="black" stroke-width="0.69554"/>
<path d="M150.669 113.137H162.531V119.393L156.924 125.908H150.669V113.137Z" stroke="black" stroke-width="0.69554"/>
<path d="M148.93 115.57H161.489V122.303L155.693 129.036H148.93V115.57Z" fill="#151C05"/>
<path d="M153.333 116.363L169.755 104.877V98.9355H179.415V103.797C179.415 105.481 178.652 107.075 177.34 108.131L153.333 127.453V116.363Z" fill="#151C05"/>
<path d="M134.322 48.7222C133.17 48.7222 132.236 49.6564 132.236 50.8088V53.7233C132.236 54.4379 131.694 55.0362 130.983 55.1074L118.344 56.3731C115.807 56.3731 113.521 57.9039 112.555 60.2495L109.639 67.3332C109.404 67.9022 109.299 68.516 109.329 69.1306L112.555 118.624L111.369 145.402C111.369 147.707 113.238 152.358 115.543 152.358H175.296C177.625 152.358 181.59 147.669 181.556 145.34L178.261 114.798V64.371C178.194 59.9347 177.709 55.4875 173.272 55.4875L158.275 55.0237C157.524 55.0005 156.927 54.3848 156.927 53.6333V50.8088C156.927 49.6564 155.993 48.7222 154.841 48.7222H134.322Z" fill="#1F4636"/>
<rect x="141.626" y="121.753" width="3.4777" height="15.9974" rx="0.69554" transform="rotate(30 141.626 121.753)" fill="#113325"/>
<rect width="3.4777" height="15.9974" rx="0.69554" transform="matrix(-0.866025 0.5 0.5 0.866025 168.635 121.753)" fill="#113325"/>
<path d="M121.804 106.631L127.716 64.8984L111.023 83.1504C110.675 83.9619 109.284 87.2541 109.284 96.7134C109.284 96.7134 110.328 116.021 121.804 106.631Z" fill="#193F2F"/>
<path d="M136.406 49.4175V54.9818" stroke="#113325" stroke-width="0.69554"/>
<path d="M143.364 49.4175V54.9818" stroke="#113325" stroke-width="0.69554"/>
<path d="M151.016 49.5742L151.712 62.0939L155.537 126.106L156.217 129.281C157.812 136.723 157.089 144.474 154.146 151.493V151.493" stroke="#113325" stroke-width="1.39108" stroke-linecap="round"/>
<path d="M109.285 144.009C109.285 143.241 109.908 142.618 110.676 142.618H180.926C181.694 142.618 182.317 143.241 182.317 144.009V153.051C182.317 153.82 181.694 154.442 180.926 154.442H110.676C109.908 154.442 109.285 153.82 109.285 153.051V144.009Z" fill="#1F4636"/>
<path d="M140.662 254.767L159.442 254.767L156.66 274.938L137.88 274.938L140.662 254.767Z" fill="#F48C85"/>
<path d="M139.271 265.2L158.051 265.2L156.66 274.938L137.88 274.938L139.271 265.2Z" fill="#FCC478"/>
<path d="M151.727 270.996C151.125 272.137 149.941 272.851 148.651 272.851L146.187 272.851C145.056 272.851 144.039 272.162 143.619 271.112C143.199 270.062 142.182 269.373 141.051 269.373L137.881 269.373L136.49 290.935L147.097 290.935L152.4 288.153L157.704 288.153L165.007 288.848L168.311 290.935L178.918 290.935L179.437 287.301C179.934 283.818 177.752 280.511 174.354 279.599L165.075 277.11C162.317 276.37 160.292 274.019 159.967 271.182L159.654 268.441C159.534 267.387 158.642 266.591 157.581 266.591L155.31 266.591C154.536 266.591 153.826 267.019 153.465 267.703L151.727 270.996Z" fill="#5D3315"/>
<path d="M136.838 285.371C137.728 286.261 138.936 286.762 140.196 286.762L179.432 286.762L179.432 290.935L166.202 290.935C165.902 290.1 165.111 289.544 164.224 289.544L164.111 289.544C163.366 289.544 162.668 289.911 162.246 290.525L161.964 290.935L156.313 290.935C155.656 290.059 154.625 289.544 153.531 289.544L152.249 289.544C151.074 289.544 149.957 290.051 149.183 290.935L136.49 290.935L136.838 285.371Z" fill="#0C0501"/>
<path d="M172.68 279.151C172.382 279.495 172.138 279.891 171.962 280.328C171.332 281.904 169.807 282.937 168.11 282.937L167.094 282.937C164.981 282.937 163.268 284.649 163.268 286.762L179.493 286.762C179.705 283.482 177.576 280.465 174.354 279.6L172.68 279.151Z" fill="#4A250A"/>
<path d="M137.744 271.46L140.3 271.46C141.148 271.46 141.911 271.976 142.226 272.764C142.751 274.076 144.022 274.937 145.436 274.937L150.284 274.937C151.628 274.937 152.852 274.163 153.427 272.948L155.05 269.523C155.395 268.794 156.129 268.33 156.935 268.33L159.636 268.33C159.468 267.331 158.602 266.591 157.579 266.591L155.308 266.591C154.534 266.591 153.824 267.019 153.463 267.703L151.725 270.996C151.123 272.137 149.939 272.851 148.649 272.851L146.185 272.851C145.054 272.851 144.037 272.162 143.617 271.112C143.197 270.062 142.18 269.373 141.049 269.373L137.879 269.373L137.744 271.46Z" fill="#4A240A"/>
<path d="M159.801 269.722L157.357 269.722C156.781 269.722 156.314 270.189 156.314 270.765C156.314 271.341 156.781 271.809 157.357 271.809L160.069 271.809C160.026 271.603 159.992 271.395 159.968 271.183L159.96 271.113L157.357 271.113C157.165 271.113 157.009 270.957 157.009 270.765C157.009 270.573 157.165 270.417 157.357 270.417L159.881 270.417L159.801 269.722Z" fill="#F1D6A9"/>
<path d="M160.514 273.2L158.052 273.2C157.476 273.2 157.009 273.667 157.009 274.243C157.009 274.819 157.476 275.286 158.052 275.286L161.935 275.286C161.719 275.068 161.518 274.836 161.332 274.591L158.052 274.591C157.86 274.591 157.705 274.435 157.705 274.243C157.705 274.051 157.86 273.895 158.052 273.895L160.869 273.895C160.738 273.671 160.619 273.439 160.514 273.2Z" fill="#F1D6A9"/>
<path fill-rule="evenodd" clip-rule="evenodd" d="M154.573 267.634C154.573 271.955 154.732 275.319 156.969 277.738C159.198 280.149 163.411 281.544 171.235 282.239L171.297 281.546C163.471 280.851 159.511 279.463 157.48 277.266C155.457 275.078 155.268 272.008 155.268 267.634L154.573 267.634ZM137.185 280.849C140.45 280.849 143.097 283.496 143.097 286.761L143.792 286.761C143.792 283.112 140.834 280.153 137.185 280.153L137.185 280.849Z" fill="#4A240A"/>
<path d="M159.679 153.209L138.883 153.209L135.726 153.209L134.323 255.454L163.084 255.454L173.491 168.779C174.485 160.498 168.019 153.209 159.679 153.209Z" fill="#B4792D"/>
<path d="M110.676 153.209H134.324C138.165 153.209 141.279 156.324 141.279 160.165V177.721C141.279 181.502 138.259 184.591 134.479 184.675L124.896 184.888C117.094 185.062 110.676 178.784 110.676 170.981V153.209Z" fill="#B4792D"/>
<path d="M212.571 255.804L230.711 250.943L235.536 270.419L217.396 275.28L212.571 255.804Z" fill="#F48C85"/>
<path d="M215.003 265.54L233.087 260.671L235.533 270.418L217.394 275.279L215.003 265.54Z" fill="#FCC478"/>
<path d="M229.745 267.889C229.458 269.147 228.5 270.142 227.254 270.476L224.874 271.114C223.781 271.407 222.62 271.005 221.943 270.099C221.265 269.193 220.104 268.792 219.012 269.084L215.95 269.905L220.187 291.092L230.432 288.347L234.835 284.286L239.958 282.914L247.192 281.695L250.924 282.856L261.169 280.111L260.73 276.466C260.309 272.973 257.346 270.344 253.827 270.343L244.22 270.34C241.365 270.339 238.8 268.592 237.752 265.936L236.74 263.369C236.351 262.382 235.283 261.844 234.259 262.119L232.065 262.706C231.318 262.907 230.743 263.504 230.571 264.259L229.745 267.889Z" fill="#5D3315"/>
<path d="M219.086 285.627C220.177 286.256 221.474 286.427 222.69 286.101L260.589 275.946L261.669 279.977L248.891 283.401C248.385 282.673 247.477 282.34 246.62 282.569L246.51 282.599C245.791 282.792 245.212 283.327 244.963 284.029L244.797 284.498L239.338 285.961C238.477 285.285 237.348 285.054 236.291 285.337L235.053 285.669C233.918 285.973 232.97 286.752 232.452 287.806L220.191 291.091L219.086 285.627Z" fill="#0C0501"/>
<path d="M252.097 270.342C251.898 270.751 251.764 271.197 251.708 271.665C251.507 273.35 250.301 274.742 248.662 275.182L247.681 275.445C245.64 275.991 244.429 278.089 244.976 280.13L260.647 275.931C260.004 272.707 257.166 270.344 253.83 270.343L252.097 270.342Z" fill="#4A250A"/>
<path d="M216.362 271.956L218.83 271.294C219.65 271.075 220.52 271.376 221.028 272.055C221.875 273.187 223.326 273.69 224.692 273.324L229.375 272.069C230.673 271.721 231.654 270.657 231.896 269.335L232.577 265.606C232.721 264.813 233.31 264.174 234.089 263.965L236.698 263.266C236.277 262.345 235.249 261.854 234.26 262.119L232.067 262.707C231.32 262.907 230.745 263.505 230.573 264.259L229.746 267.889C229.46 269.147 228.501 270.143 227.256 270.477L224.875 271.115C223.783 271.407 222.622 271.005 221.945 270.1C221.267 269.194 220.106 268.792 219.014 269.085L215.952 269.905L216.362 271.956Z" fill="#4A240A"/>
<path d="M237.217 264.567L234.856 265.2C234.3 265.349 233.969 265.921 234.119 266.477C234.268 267.034 234.84 267.364 235.396 267.215L238.016 266.513C237.921 266.326 237.835 266.133 237.757 265.935L237.731 265.87L235.216 266.543C235.031 266.593 234.84 266.483 234.79 266.297C234.741 266.112 234.851 265.921 235.036 265.872L237.474 265.218L237.217 264.567Z" fill="#F1D6A9"/>
<path d="M238.806 267.742L236.428 268.379C235.872 268.528 235.541 269.1 235.691 269.657C235.84 270.213 236.412 270.544 236.968 270.394L240.719 269.39C240.453 269.235 240.199 269.062 239.956 268.874L236.788 269.723C236.603 269.772 236.412 269.662 236.362 269.477C236.313 269.291 236.423 269.1 236.608 269.051L239.329 268.322C239.144 268.139 238.97 267.945 238.806 267.742Z" fill="#F1D6A9"/>
<path fill-rule="evenodd" clip-rule="evenodd" d="M231.633 263.905C232.751 268.078 233.775 271.286 236.562 273.044C239.339 274.796 243.77 275.053 251.507 273.699L251.387 273.014C243.648 274.368 239.464 274.052 236.933 272.456C234.413 270.866 233.436 267.949 232.304 263.724L231.633 263.905ZM218.256 281.169C221.409 280.324 224.651 282.196 225.496 285.35L226.168 285.17C225.224 281.645 221.601 279.553 218.076 280.498L218.256 281.169Z" fill="#4A240A"/>
<path fill-rule="evenodd" clip-rule="evenodd" d="M209.441 153.21H145.452V171.089C145.452 178.771 151.68 185 159.362 185H191.175L209.413 260.695L236.958 253.361L224.237 167.822C224.012 166.309 223.553 164.894 222.904 163.604C221.346 157.624 215.909 153.21 209.441 153.21Z" fill="#B4792D"/>
<mask id="path-84-inside-1_20_2991" fill="white">
</mask>
<path d="M236.959 253.313L237.094 253.817L237.545 253.696L237.475 253.235L236.959 253.313ZM209.414 260.694L208.906 260.815L209.031 261.337L209.549 261.198L209.414 260.694ZM223.632 165.294L224.148 165.215L223.632 165.294ZM210.819 153.497L210.854 152.977V152.977L210.819 153.497ZM236.824 252.809L209.279 260.19L209.549 261.198L237.094 253.817L236.824 252.809ZM209.921 260.573L190.125 177.779L189.111 178.022L208.906 260.815L209.921 260.573ZM223.116 165.372L236.443 253.391L237.475 253.235L224.148 165.215L223.116 165.372ZM201.407 153.382L210.784 154.018L210.854 152.977L201.477 152.341L201.407 153.382ZM224.148 165.215C223.135 158.523 217.607 153.434 210.854 152.977L210.784 154.018C217.048 154.442 222.176 159.163 223.116 165.372L224.148 165.215Z" fill="#6D3A09" mask="url(#path-84-inside-1_20_2991)"/>
<path d="M110.676 153.209V171.294C110.676 178.976 116.904 185.204 124.587 185.204H134.586C134.974 185.204 135.287 185.522 135.281 185.909L134.334 254.749C134.328 255.137 134.641 255.454 135.029 255.454H162.468C162.82 255.454 163.117 255.191 163.159 254.841L173.506 168.768C174.493 160.49 168.028 153.209 159.693 153.209" stroke="#6D3A09" stroke-width="1.04331"/>
<path fill-rule="evenodd" clip-rule="evenodd" d="M109.628 142.618C109.628 142.426 109.784 142.271 109.976 142.271H181.616C181.809 142.271 181.964 142.426 181.964 142.618C181.964 142.81 181.809 142.966 181.616 142.966H109.976C109.784 142.966 109.628 142.81 109.628 142.618Z" fill="#113325"/>
<path d="M217.656 91.1164C219.511 91.0886 221.062 92.5227 221.178 94.3748L222.076 108.614C222.195 110.504 220.781 112.142 218.894 112.299L186.394 115.008C182.566 115.327 179.204 112.483 178.885 108.655L178.092 99.1395C177.757 95.1255 180.892 91.6674 184.919 91.607L217.656 91.1164Z" fill="#1F4636"/>
<path d="M225.786 108.348L224.047 92.3505L246.652 92.0027L247.083 93.4696C247.904 96.2605 247.332 99.2759 245.546 101.572L243.522 104.175L239.256 107.374C238.413 108.006 237.388 108.348 236.335 108.348H225.786Z" fill="#F48C85"/>
<rect x="225.775" y="93.2375" width="16.1708" height="5.55693" rx="0.69554" transform="rotate(85.2348 225.775 93.2375)" fill="#1F4636"/>
<path d="M194.204 98.5371C196.236 104.598 193.127 111.183 187.156 113.466C180.677 115.943 173.459 112.389 171.472 105.743L160.731 69.8036C158.931 63.7812 162.389 57.447 168.429 55.705C174.247 54.0268 180.354 57.2315 182.279 62.9728L194.204 98.5371Z" fill="#1F4636"/>
<path d="M178.261 70.0933V114.798" stroke="#113325" stroke-width="1.39108"/>
<path d="M154.185 113.567C159.202 132.293 148.089 151.541 129.363 156.559C110.637 161.576 91.389 150.464 86.3713 131.737C81.3537 113.011 92.4666 93.7632 111.193 88.7456C129.919 83.7279 149.167 94.8408 154.185 113.567Z" fill="#030202"/>
<ellipse cx="125.474" cy="121.26" rx="32.5549" ry="35.1027" transform="rotate(-15 125.474 121.26)" fill="#0D0A07"/>
<ellipse cx="156.114" cy="112.914" rx="26.8946" ry="28.6364" transform="rotate(-15 156.114 112.914)" fill="#0D0A07"/>
<circle cx="153.15" cy="113.845" r="12.0088" transform="rotate(-15 153.15 113.845)" fill="#030202"/>
<rect x="111.18" y="112.658" width="6.46629" height="24.0176" rx="0.566173" transform="rotate(-15 111.18 112.658)" fill="#5D3315"/>
<path d="M169.618 103.94C169.32 102.827 169.981 101.683 171.094 101.384L256.048 78.6209L260.112 93.7896L175.158 116.553C174.045 116.851 172.901 116.191 172.603 115.078L169.618 103.94Z" fill="#5D3315"/>
<rect width="26.7889" height="21.2464" rx="2.77127" transform="matrix(-0.965926 0.258819 0.258819 0.965926 276.353 69.7737)" fill="#5D3315"/>
<path d="M233.445 85.1562L237.271 99.4327" stroke="#4A270F" stroke-width="0.923755"/>
<path d="M247.355 81.679L251.18 95.9554" stroke="#4A270F" stroke-width="0.923755"/>
<path d="M221.724 87.8206L225.549 102.097" stroke="#4A270F" stroke-width="0.923755"/>
<path d="M210.128 90.9285L213.954 105.205" stroke="#4A270F" stroke-width="0.923755"/>
<path d="M198.526 94.0349L202.351 108.311" stroke="#4A270F" stroke-width="0.923755"/>
<path d="M186.926 97.1453L190.751 111.422" stroke="#4A270F" stroke-width="0.923755"/>
<rect x="252.851" y="71.2869" width="4.61878" height="5.54253" rx="1.13235" transform="rotate(-15 252.851 71.2869)" fill="#5D3315"/>
<rect x="259.988" y="69.375" width="4.61878" height="5.54253" rx="1.13235" transform="rotate(-15 259.988 69.375)" fill="#5D3315"/>
<rect x="267.127" y="67.4619" width="4.61878" height="5.54253" rx="1.13235" transform="rotate(-15 267.127 67.4619)" fill="#5D3315"/>
<rect x="259.305" y="95.3792" width="4.61878" height="5.54253" rx="1.13235" transform="rotate(-15 259.305 95.3792)" fill="#5D3315"/>
<rect x="266.444" y="93.4673" width="4.61878" height="5.54253" rx="1.13235" transform="rotate(-15 266.444 93.4673)" fill="#5D3315"/>
<rect x="273.581" y="91.5542" width="4.61878" height="5.54253" rx="1.13235" transform="rotate(-15 273.581 91.5542)" fill="#5D3315"/>
<path d="M119.371 119.129L251.524 82.2659" stroke="#EDEDED" stroke-width="0.69554"/>
<path d="M120.759 121.909L252.912 85.0454" stroke="#EDEDED" stroke-width="0.69554"/>
<path d="M122.152 129.561L254.304 92.6978" stroke="#EDEDED" stroke-width="0.69554"/>
<path d="M121.457 126.083L253.609 89.2192" stroke="#EDEDED" stroke-width="0.69554"/>
<path d="M109.469 60.882C112.67 56.6107 118.49 55.2804 123.229 57.7372C129.141 60.8024 130.954 68.4013 127.064 73.806L100.637 110.515C97.6822 114.62 92.3676 116.274 87.6051 114.571C80.4091 111.999 77.7608 103.193 82.3437 97.0778L109.469 60.882Z" fill="#1A3A2D"/>
<path d="M122.105 102.706C123.928 103.229 124.996 105.117 124.504 106.95L121.26 119.041C120.773 120.856 118.932 121.956 117.102 121.524L87.8224 114.61C82.0636 113.25 78.5794 107.387 80.1378 101.678C81.673 96.0552 87.5092 92.7727 93.1117 94.3813L122.105 102.706Z" fill="#1A3A2D"/>
<path d="M130.535 122.036L124.689 119.842C124.308 119.699 124.033 119.363 123.969 118.962L123.481 115.933C122.839 111.952 125.247 108.112 129.11 106.956L143.89 107.475C146.961 107.583 149.687 109.474 150.863 112.314L151.664 114.248C151.955 114.95 152.156 115.687 152.263 116.44L153.041 121.916C153.14 122.616 152.665 123.269 151.968 123.389L150.766 123.596C150.193 123.695 149.788 124.211 149.829 124.791L149.936 126.313C149.995 127.154 149.448 127.918 148.633 128.132L148.502 128.167C147.607 128.402 146.697 127.843 146.502 126.938L146.281 127.404C145.588 128.86 143.598 129.061 142.628 127.773C142.826 128.69 142.243 129.594 141.326 129.791C140.409 129.989 139.505 129.406 139.307 128.489L138.418 124.365C138.119 122.975 136.749 122.091 135.359 122.39C133.75 122.737 132.076 122.614 130.535 122.036Z" fill="#F48C85"/>
<path d="M136.125 116.433L137.781 117.299C139.983 118.451 141.517 120.569 141.925 123.019L142.668 127.475" stroke="#C6443A" stroke-width="1.04331" stroke-linecap="round"/>
<path d="M140.583 113.911L142.943 115.726C144.698 117.076 145.809 119.098 146.006 121.304L146.495 126.778" stroke="#C6443A" stroke-width="1.04331" stroke-linecap="round"/>
<path d="M144.059 111.825L146.149 113.255C148.089 114.582 149.34 116.702 149.564 119.043L149.971 123.302" stroke="#C6443A" stroke-width="1.04331" stroke-linecap="round"/>
<rect x="129.87" y="106.13" width="15.9345" height="6.16795" rx="0.69554" transform="rotate(103.726 129.87 106.13)" fill="#1A3A2D"/>
<path d="M129.714 15.5573C129.846 8.20669 135.42 2.09951 142.728 1.29931L146.236 0.91522C146.295 0.908803 146.354 0.909863 146.412 0.918375L149.904 1.42786C157.179 2.48929 162.531 8.79221 162.399 16.1428L162.33 19.9749C162.324 20.359 162.007 20.6647 161.623 20.6579L130.328 20.0973C129.944 20.0904 129.638 19.7734 129.645 19.3894L129.714 15.5573Z" fill="#993E00"/>
<path fill-rule="evenodd" clip-rule="evenodd" d="M158.843 20.6084C159.227 20.6153 159.544 20.3095 159.551 19.9254L159.625 15.7642C159.754 8.55605 154.605 2.33185 147.5 1.10819L146.432 0.924052C146.401 0.918747 146.37 0.915561 146.339 0.914411C146.299 0.913022 146.259 0.91494 146.22 0.920262L145.145 1.06601C138.001 2.03441 132.632 8.07019 132.503 15.2783L132.429 19.4396C132.422 19.8236 132.728 20.1406 133.112 20.1475L158.843 20.6084ZM158.855 19.913L158.93 15.7517C159.037 9.74939 155.302 4.46347 149.838 2.45086C152.944 4.51762 154.893 8.06544 154.824 11.9599L154.683 19.8382L158.855 19.913ZM137.438 11.6485C137.508 7.75399 139.583 4.27826 142.761 2.32407C137.229 4.13971 133.306 9.28844 133.199 15.2908L133.124 19.452L137.297 19.5268L137.438 11.6485ZM138.133 11.6609L137.992 19.5392L142.165 19.614L142.389 7.09798C142.422 5.23012 143.195 3.48376 144.488 2.21099C140.75 3.80979 138.208 7.47782 138.133 11.6609ZM148.116 2.27599C151.794 4.00764 154.203 7.76435 154.128 11.9475L153.987 19.8258L149.815 19.751L150.039 7.23501C150.072 5.36715 149.363 3.59426 148.116 2.27599ZM149.119 19.7386L149.343 7.22256C149.384 4.97014 148.226 2.87102 146.312 1.70163C144.357 2.80172 143.125 4.85802 143.084 7.11043L142.86 19.6264L149.119 19.7386Z" fill="#B4510E"/>
<path d="M144.238 20.3457L129.634 20.0841L129.541 25.2998C130.538 24.8232 134.976 25.4701 136.683 25.7146C136.983 25.7575 137.221 25.987 137.275 26.285L137.817 29.2742L138.86 29.2929C139.244 29.2997 139.546 28.9889 139.632 28.6146C140.059 26.7666 142.152 27.7604 143.443 25.8967C144.871 23.8353 144.238 20.3457 144.238 20.3457Z" fill="#0D0A07"/>
<rect x="129" y="16.5958" width="34.0815" height="5.56432" rx="0.69554" transform="rotate(1.02629 129 16.5958)" fill="#7C3200"/>
<path d="M138.497 27.8958C138.768 32.0745 136.91 32.0413 134.618 32.0002C132.326 31.9591 130.848 30.0639 130.889 27.7595C130.93 25.455 132.476 23.614 134.768 23.6551C137.06 23.6961 138.538 25.5913 138.497 27.8958Z" fill="#F48C85"/>
<path fill-rule="evenodd" clip-rule="evenodd" d="M133.706 26.1476C133.858 26.03 134.077 26.0578 134.194 26.2096L136.001 28.5428C136.119 28.6947 136.091 28.9131 135.939 29.0307C135.787 29.1483 135.569 29.1205 135.451 28.9687L133.644 26.6355C133.527 26.4836 133.555 26.2652 133.706 26.1476Z" fill="#C6443A"/>
<rect x="131.063" y="18.0227" width="4.17324" height="2.78216" rx="0.69554" transform="rotate(1.02629 131.063 18.0227)" fill="#F9A76F"/>
<path d="M147.364 1.43916C147.378 1.37323 147.363 1.34159 147.364 1.27156C147.374 0.695445 146.915 0.220047 146.339 0.209727C145.763 0.199406 145.288 0.658071 145.278 1.23418C145.276 1.30421 145.282 1.37276 145.294 1.43916L147.364 1.43916Z" fill="#993E00"/>
<path d="M153.877 30.2539L154.84 34.7929L153.101 34.7617" stroke="#C6443A" stroke-width="1.04331" stroke-linecap="round" stroke-linejoin="round"/>
<path d="M146.842 26.9695V26.9695C146.842 27.9298 147.621 28.7083 148.581 28.7083H149.277C150.237 28.7083 151.015 27.9298 151.015 26.9695V26.9695" stroke="black" stroke-width="0.69554" stroke-linecap="round"/>
<path d="M155.885 26.9695V26.9695C155.885 27.9298 156.664 28.7083 157.624 28.7083H158.319C159.28 28.7083 160.058 27.9298 160.058 26.9695V26.9695" stroke="black" stroke-width="0.69554" stroke-linecap="round"/>
<path d="M154.493 41.2282C153.341 41.2282 152.406 40.4497 152.406 39.4893C152.406 38.529 153.341 37.7505 154.493 37.7505" stroke="#C6443A" stroke-width="1.04331" stroke-linecap="round"/>
<path d="M234.829 100.349L232.743 103.827L236.916 106.261L246.306 99.6535L247.001 96.5236V93.0459L246.306 91.6548L241.437 86.4382H240.046L239.35 88.5249L240.046 89.9159L238.655 89.5682L237.612 90.6115L237.264 92.0026L235.525 91.307L234.134 92.3503V94.4369L232.047 93.0459L230.656 94.4369V95.4803L234.829 100.349Z" fill="#F48C85"/>
<path fill-rule="evenodd" clip-rule="evenodd" d="M233.267 93.971C232.853 93.5255 232.187 93.4237 231.659 93.7254C230.946 94.1328 230.78 95.0889 231.315 95.7125L234.838 99.8229C235.138 100.173 235.176 100.677 234.932 101.068L233.011 104.141C232.884 104.344 232.617 104.405 232.414 104.279C232.212 104.152 232.15 103.885 232.277 103.683L234.198 100.609C234.242 100.539 234.235 100.449 234.181 100.386L230.658 96.2756C229.77 95.2396 230.045 93.6511 231.23 92.9742C232.107 92.473 233.213 92.6421 233.901 93.3823L237.763 97.5412C238.361 98.186 238.724 99.0146 238.791 99.8919L239.021 102.882C239.101 103.912 238.768 104.93 238.096 105.714L236.433 107.654C236.277 107.835 236.004 107.856 235.823 107.701C235.642 107.546 235.621 107.272 235.776 107.091L237.439 105.151C237.961 104.542 238.22 103.749 238.159 102.948L237.929 99.9582C237.876 99.2759 237.594 98.6314 237.129 98.13L233.267 93.971Z" fill="#C6443A"/>
<path fill-rule="evenodd" clip-rule="evenodd" d="M236.745 92.2548C236.323 91.8004 235.643 91.6965 235.105 92.0042C234.389 92.4133 234.212 93.3672 234.733 94.0062L236.562 96.2493C236.713 96.4345 236.685 96.707 236.5 96.858C236.314 97.0089 236.042 96.9812 235.891 96.7961L234.062 94.5529C233.203 93.4996 233.495 91.9273 234.675 91.253C235.563 90.7458 236.683 90.917 237.379 91.6661L241.226 95.8097C241.825 96.4545 242.188 97.2831 242.255 98.1604L242.485 101.15C242.564 102.18 242.231 103.199 241.559 103.983L239.897 105.923C239.741 106.104 239.468 106.125 239.287 105.97C239.105 105.814 239.084 105.541 239.24 105.36L240.902 103.42C241.425 102.81 241.684 102.018 241.623 101.217L241.393 98.2267C241.34 97.5444 241.058 96.8999 240.592 96.3985L236.745 92.2548Z" fill="#C6443A"/>
<path fill-rule="evenodd" clip-rule="evenodd" d="M240.207 90.5275C239.783 90.0705 239.099 89.966 238.558 90.2755C237.841 90.6849 237.661 91.6381 238.178 92.2814L239.691 94.1637C239.841 94.3499 239.811 94.6222 239.625 94.7719C239.439 94.9216 239.166 94.892 239.017 94.7058L237.503 92.8234C236.653 91.7654 236.95 90.1978 238.129 89.5243C239.019 89.0154 240.143 89.1871 240.841 89.9388L244.685 94.078C245.283 94.7228 245.646 95.5514 245.714 96.4287L245.944 99.4188C246.023 100.448 245.69 101.467 245.018 102.251L243.355 104.191C243.2 104.372 242.926 104.393 242.745 104.238C242.564 104.082 242.543 103.809 242.698 103.628L244.361 101.688C244.883 101.078 245.142 100.286 245.081 99.4851L244.851 96.495C244.798 95.8127 244.516 95.1683 244.051 94.6668L240.207 90.5275Z" fill="#C6443A"/>
<path fill-rule="evenodd" clip-rule="evenodd" d="M241.916 87.0423C241.505 86.6002 240.844 86.4992 240.32 86.7985C239.608 87.2053 239.447 88.1621 239.986 88.7797L243.159 92.4123L242.507 92.9815L239.335 89.3488C238.436 88.3196 238.704 86.7253 239.891 86.0473C240.764 85.5485 241.865 85.7168 242.55 86.4536L246.417 90.6183C247.015 91.2631 247.378 92.0916 247.446 92.9689L247.704 96.322C247.753 96.9592 247.644 97.5963 247.39 98.1781C247.294 98.397 247.027 98.4674 246.82 98.3482C246.613 98.2289 246.545 97.9651 246.634 97.7432C246.805 97.3151 246.877 96.8517 246.841 96.3883L246.583 93.0353C246.53 92.3529 246.248 91.7085 245.783 91.207L241.916 87.0423Z" fill="#C6443A"/>
<path d="M134.668 247.803H163.881" stroke="#6D3A09" stroke-width="1.04331"/>
<path d="M207.155 252.278L235.372 244.718" stroke="#6D3A09" stroke-width="1.04331"/>
<path d="M187.533 30.0993V19.8615C187.533 19.409 187.107 19.077 186.668 19.1868L176.931 21.6212C176.621 21.6986 176.404 21.9768 176.404 22.2959V32.186" stroke="black" stroke-width="2.08662"/>
<path d="M198.659 9.23267V20.3613" stroke="black" stroke-width="2.08662" stroke-linecap="round"/>
<circle cx="174.662" cy="32.185" r="2.78216" fill="black"/>
<circle cx="185.793" cy="30.0981" r="2.78216" fill="black"/>
<circle cx="196.922" cy="20.3613" r="2.78216" fill="black"/>
</svg>
